<?xml version="1.0" encoding="UTF-8" standalone="no"?><!DOCTYPE svg PUBLIC "-//W3C//DTD SVG 1.1//EN" "http://www.w3.org/Graphics/SVG/1.1/DTD/svg11.dtd"><svg width="100%" height="100%" viewBox="0 0 3538 5000" version="1.1" xmlns="http://www.w3.org/2000/svg" xmlns:xlink="http://www.w3.org/1999/xlink" xml:space="preserve" xmlns:serif="http://www.serif.com/" style="fill-rule:evenodd;clip-rule:evenodd;stroke-linejoin:round;stroke-miterlimit:2;"><g id="Background"></g><g><path d="M1722.654,2697.366c-0.898,-17.372 4.533,-15.539 16.758,-27.936c19.599,-19.874 18.479,-20.706 38.153,-40.492c7.113,1.607 7.054,1.689 7.682,1.735c2.194,0.162 4.247,-1.87 6.421,-1.53c1.705,0.267 2.489,2.53 4.091,3.173c1.305,0.524 2.911,-0.359 4.215,0.166c-0.256,0.81 -5.278,2.312 -3.071,9.711c0.081,0.273 0.23,0.77 1.939,2.99c6.576,8.542 8.227,7.636 22.669,43.761c3.093,7.738 10.939,4.214 11.674,4.352c-12.493,31.994 2.524,40.111 -13.313,58.409c-20.361,23.525 -56.226,-12.038 -56.68,-12.077c-2.124,-0.184 -2.998,4.015 -5.122,3.831c-2.187,-7.128 0.576,-8.714 -15.14,-26.933c-9.217,-10.685 -9.359,-10.359 -20.277,-19.159Z" style="fill:#a99674;"/><path d="M695.962,3857.991c74.967,-38.981 146.966,-42.597 160.68,-8.069c13.714,34.528 -36.016,94.208 -110.983,133.189c-74.967,38.981 -146.966,42.597 -160.68,8.069c-13.714,-34.528 36.016,-94.208 110.983,-133.189Z" style="fill:#1f1f1f;"/><path d="M1145.27,3748.168c58.542,-75.177 126.164,-115.728 150.913,-90.498c24.749,25.23 -2.687,106.748 -61.23,181.925c-58.542,75.177 -126.164,115.728 -150.913,90.498c-24.749,-25.23 2.687,-106.748 61.23,-181.925Z" style="fill:#1f1f1f;"/><path d="M827.248,3786.458l0,47.917c0,13.223 -10.735,23.958 -23.958,23.958l-50.408,0c-13.223,0 -23.958,-10.735 -23.958,-23.958l0,-47.917c0,-13.223 10.735,-23.958 23.958,-23.958l50.408,0c13.223,0 23.958,10.735 23.958,23.958Z" style="fill:#811f12;"/><path d="M1248.879,3620.793l25.926,55.964c5.739,12.388 0.979,28.158 -10.622,35.194l-42.041,25.496c-11.602,7.036 -25.68,2.691 -31.419,-9.698l-25.926,-55.964c-5.739,-12.388 -0.979,-28.158 10.622,-35.194l42.041,-25.496c11.602,-7.036 25.68,-2.691 31.419,9.698Z" style="fill:#811f12;"/><path d="M759.907,2474.582c10.666,1.341 10.437,-0.489 20.998,0.359c45.582,3.661 179.336,-7.444 183.457,-7.171c10.939,0.725 10.572,-2.624 21.384,-2.621c51.978,0.013 51.148,-7.692 55.627,-7.535c30.147,1.056 29.926,-0.501 59.897,-3.889c38.53,-4.356 37.511,-10.155 40.843,-9.892c4.495,0.355 20.414,55.763 40.569,80.501c39.732,48.766 51.546,51.788 57.311,53.263c-0.53,4.356 1.556,4.473 -3.168,54.86c-2.714,28.952 1.309,34.821 -13.795,165.824c-3.405,29.53 -0.954,29.537 -5.114,59.054c-5.542,93.76 -5.304,93.598 -1.171,180.435c1.412,29.661 -3.65,146.536 13.608,229.116c20.988,100.43 16.201,101.582 41.288,200.605c1.383,5.46 0.895,5.501 15.398,68.844c3.538,15.455 2.065,35.473 1.838,38.551l-3.608,5.039l-5.623,4.006c-0.454,-1.239 3.082,-1.447 2.628,-2.687c-1.118,-3.049 -4.624,-4.175 -6.168,-6.97c-0.718,-1.301 1.11,-4.45 -0.228,-4.609c-0.771,-0.092 0.386,2.264 -8.269,5.781c-1.271,0.517 -2.716,0.526 -3.886,1.294c-4.427,2.905 -5.405,-1.309 -9.578,2.255c-8.6,7.345 -7.826,8.124 -13.149,13.437c-0.802,0.801 -16.633,7.819 -30.498,20.175c-8.982,8.004 -8.163,10.441 -11.82,9.49c-1.49,-0.387 -5.489,-6.159 -17.563,5.099c-6.039,5.631 -7.566,4.206 -10.124,12.551c-1.025,3.343 6.086,9.788 7.166,10.817l-4.638,2.439c-19.189,10.253 -19.646,8.344 -38.541,19.284c-13.351,7.73 -12.942,10.075 -27.848,9.783c-8.237,-47.505 -22.743,-76.532 -26.032,-107.393c-1.132,-10.621 -5.137,-15.473 -5.162,-24.267c-0.146,-52.253 -17.651,-70.384 -29.45,-156.323c-5.405,-39.371 -9.833,-38.295 -13.6,-78.028c-2.576,-27.175 -26.347,-197.913 -28.741,-215.105c-6.75,-48.482 -5.543,-48.481 -10.468,-97.287c-7.182,-71.166 -17.216,-82.357 -22.332,-327.184c-0.832,-39.83 5.932,-95.579 -11.66,-88.984c-8.962,3.36 -3.231,101.41 -14.658,162.559c-1.897,10.153 1.38,88.633 -5.874,151.066c-0.103,0.882 -11.532,125.815 -12.532,136.756c-1.435,15.689 0.516,126.29 -18.149,331.866c-0.761,0.397 -9.517,4.958 -9.517,4.958c-0.479,0.619 0.145,0.787 -3.829,9.369c-3,6.479 -0.421,19.74 -0.419,19.928c0.032,3.272 -1.217,6.516 -0.877,9.766c0.161,1.538 2.034,2.312 2.3,3.831c0.317,1.808 1.837,18.935 1.983,20.583c0.869,9.798 4.037,7.564 5.169,9.684c-0.41,13.321 -0.963,13.201 -11.814,166.07c-3.471,48.9 -11.95,66.143 -11.737,102.496c0.012,2.001 0.028,4.724 -3.903,24.615c-32.967,34.848 -45.702,23.226 -107.75,28.912c-23.589,2.161 -23.204,-1.134 -64.11,-8.48c-19.689,-3.536 -19.778,2.222 -21.216,1.188c-2.447,-1.76 -2.992,-5.966 -5.439,-7.726c10.987,-34.717 -0.88,-40.982 2.085,-136.068c1.842,-59.083 -2.899,-59.329 6.932,-117.312c7.867,-46.401 -4.043,-133.75 10.418,-199.641c8.73,-39.779 -4.356,-50.29 6.526,-142.166c1.613,-13.62 -1.261,-77.089 -1.312,-77.987c-0.773,-13.639 -0.949,-16.742 3.532,-170.795c0.268,-9.215 3.873,-8.875 8.568,-122.094c0.323,-7.778 -1.403,-139.401 -0.614,-141.871c0.819,-2.563 4.384,-3.057 5.202,-5.62l3.794,-1.014c39.192,-22.366 70.98,-145.695 57.565,-153.484c-0.85,-0.494 -1.943,1.2 -2.793,0.706c-1.584,1.113 -3.168,2.226 -4.752,3.339c-0.954,10.2 -0.766,9.967 -2.544,20.264c-10.941,50.32 -16.231,67.601 -49.669,115.863c-3.585,5.174 -1.688,5.744 -3.001,10.209c-2.473,-3.501 -3.867,-1.158 -6.406,-4.753c-0.216,-0.305 -0.243,-0.344 -0.401,-4.883c-0.136,-3.901 -1.307,-37.576 -3.417,-48.644c-2.803,-14.706 -1.557,-14.676 0.002,-29.467c1.508,-14.305 -10.765,-19.123 0.483,-63.491c15.607,12.554 18.687,5.173 34.856,3.976c4.327,-0.32 8.673,0.116 13.008,0.004c1.182,-0.03 14.174,-0.364 14.22,-4.585c0.014,-1.241 -0.652,-0.73 -9.686,-10.848Z"/><path d="M1279.643,3583.932c-20.293,13.039 -19.969,13.029 -39.71,27.735c-29.629,22.073 -29.557,21.873 -61.778,38.898c-1.08,-1.029 -8.191,-7.474 -7.166,-10.817c2.557,-8.345 4.085,-6.92 10.124,-12.551c12.074,-11.258 16.073,-5.487 17.563,-5.099c3.657,0.951 2.838,-1.486 11.82,-9.49c13.865,-12.356 29.696,-19.374 30.498,-20.175c5.323,-5.313 4.549,-6.092 13.149,-13.437c4.173,-3.564 5.152,0.65 9.578,-2.255c1.17,-0.768 2.614,-0.777 3.886,-1.294c8.655,-3.517 7.498,-5.872 8.269,-5.781c1.338,0.159 -0.491,3.308 0.228,4.609c1.544,2.795 5.05,3.921 6.168,6.97c0.454,1.239 -3.082,1.447 -2.628,2.687Z" style="fill:#142034;"/><path d="M777.213,2487.597c0.85,0.494 1.943,-1.2 2.793,-0.706c13.415,7.788 -18.373,131.118 -57.565,153.484l-5.194,-3.102c1.312,-4.464 -0.584,-5.035 3.001,-10.209c33.438,-48.262 38.728,-65.543 49.669,-115.863c1.779,-10.297 1.59,-10.064 2.544,-20.264l4.752,-3.339Z" style="fill:#020202;"/><path d="M912.819,2607.697c-4.674,8.502 -4.02,9.438 -12.089,13.84c-1.122,0.612 -2.3,-1.583 -3.529,-1.374c-12.822,2.182 1.151,26.843 -4.421,47.786c-1.336,5.022 -9.367,5.928 -8.963,-10.952c0.079,-3.313 0.515,-6.623 0.383,-9.934c-0.662,-16.677 -18.379,-7.515 -17.597,-29.153c0.69,-19.088 -10.884,-23.721 -0.19,-29.138c13.137,-6.655 10.484,-10.702 11.682,-10.819c18.375,-1.806 -0.203,33.111 17.571,27.44c7.271,-2.32 6.65,1.297 8.94,2.536c0,0 7.557,-0.213 8.215,-0.231Z" style="fill:#fff;"/><path d="M1186.553,2705.999c6.419,1.505 6.521,1.27 11.385,6.355c5.007,5.235 6.067,1.585 6.356,2.092c0.922,1.618 -0.958,3.932 -0.446,5.773c0.568,2.044 3.56,2.932 3.459,5.074c-0.293,6.174 -18.501,1.172 -18.795,8.977c-0.302,8.033 20.676,8.558 5.131,23.947c-3.785,3.748 -3.57,-0.13 -7.784,-5.048c-2.532,-2.955 -2.803,-0.927 -4.405,0.177c-19.969,13.754 -29.768,-9.806 -28.512,-13.044c4.368,-11.259 11.978,-2.087 12.679,-1.242c4.976,5.997 8.29,4.35 8.5,-3.933c0.057,-2.245 -1.104,-7.029 4.053,-13.771c5.373,-7.024 5.072,-6.992 8.379,-15.357Z" style="fill:#fff;"/><path d="M908.469,3369.749c-2.899,29.882 -1.934,42.748 -5.19,78.119c-1.132,-2.121 -4.3,0.113 -5.169,-9.684c-0.146,-1.648 -1.666,-18.776 -1.983,-20.583c-0.267,-1.519 -2.139,-2.292 -2.3,-3.831c-0.34,-3.249 0.909,-6.493 0.877,-9.766c-0.002,-0.188 -2.581,-13.449 0.419,-19.928c3.974,-8.582 3.35,-8.75 3.829,-9.369c0,0 8.756,-4.561 9.517,-4.958Z" style="fill:#142034;"/><path d="M2374.787,3916.325c85.775,-38.981 168.153,-42.597 183.845,-8.069c15.691,34.528 -41.208,94.208 -126.983,133.189c-85.775,38.981 -168.153,42.597 -183.845,8.069c-15.691,-34.528 41.208,-94.208 126.983,-133.189Z" style="fill:#1f1f1f;"/><path d="M2888.87,3806.501c66.982,-75.177 144.353,-115.728 172.67,-90.498c28.317,25.23 -3.075,106.748 -70.057,181.925c-66.982,75.177 -144.353,115.728 -172.67,90.498c-28.317,-25.23 3.075,-106.748 70.057,-181.925Z" style="fill:#1f1f1f;"/><path d="M2525,3844.792l0,47.917c0,13.223 -10.735,23.958 -23.958,23.958l-64.583,0c-13.223,0 -23.958,-10.735 -23.958,-23.958l0,-47.917c0,-13.223 10.735,-23.958 23.958,-23.958l64.583,0c13.223,0 23.958,10.735 23.958,23.958Z" style="fill:#fff;"/><path d="M3008.267,3680.732l27.962,52.754c7.036,13.274 1.971,29.763 -11.303,36.799l-48.102,25.496c-13.274,7.036 -29.763,1.971 -36.799,-11.303l-27.962,-52.754c-7.036,-13.274 -1.971,-29.763 11.303,-36.799l48.102,-25.496c13.274,-7.036 29.763,-1.971 36.799,11.303Z" style="fill:#fff;"/><ellipse cx="2793.75" cy="1172.917" rx="160.417" ry="156.25" style="fill:#cdbeb5;"/><ellipse cx="1027.083" cy="1250" rx="131.25" ry="154.167" style="fill:#cdbeb5;"/><path d="M3276.533,2569.057c1.156,-17.356 6.333,-14.897 19.933,-25.767c21.805,-17.426 20.79,-18.384 42.659,-35.714c6.874,2.434 6.806,2.508 7.424,2.628c2.16,0.42 4.438,-1.357 6.557,-0.763c1.662,0.466 2.174,2.805 3.688,3.633c1.234,0.675 2.933,-0.013 4.167,0.661c-0.35,0.774 -5.513,1.674 -4.193,9.281c0.049,0.281 0.137,0.791 1.573,3.198c5.523,9.258 7.269,8.552 17.354,46.128c2.16,8.048 10.366,5.473 11.08,5.697c-16.176,30.299 -2.22,40.129 -20.103,56.433c-22.991,20.961 -54.415,-18.58 -54.862,-18.672c-2.088,-0.433 -3.45,3.633 -5.538,3.2c-1.332,-7.336 1.599,-8.585 -11.861,-28.529c-7.894,-11.697 -8.074,-11.389 -17.878,-21.415Z" style="fill:#cacdc1;"/><path d="M949.714,1329.949c0.892,3.139 3.461,2.35 2.895,10.184c-0.421,5.826 -2.937,40.691 1.04,73.009c4.936,40.109 3.975,41.058 6.485,42.183c3.067,1.375 53.058,-0.912 63.265,-2.19c8.573,2.334 8.519,2.755 9.249,2.518c3.262,-1.056 1.84,-3.002 5.118,-4.063c24.3,-1.096 24.131,-1.878 48.561,-0.634c4.95,-0.305 9.901,-0.611 14.851,-0.916c22.329,-2.05 49.33,1.014 53.592,1.497c4.941,-0.322 9.882,-0.645 14.822,-0.967c21.695,0.978 24.361,3.006 37.23,-14.466c23.755,-32.252 -1.353,-75.198 -4.62,-80.786c-2.818,-4.819 -3.563,-4.404 -3.47,-4.874c0.968,-4.906 4.916,-2.457 5.898,-7.435c9.821,4.575 9.635,4.486 19.041,9.888c-0.078,0.498 -4.846,4.068 -1.758,11.29c3.634,8.5 16.53,28.359 5.338,63.162c-6.043,18.792 -18.91,30.308 0.82,28.666c12.865,-1.07 6.645,-8.157 24.943,-62.311c1.121,-3.319 1.15,-7.117 3.057,-10.056c1.848,-2.849 5.905,-3.759 7.753,-6.608c4.491,1.817 8.983,3.635 13.474,5.452c-14.25,12.098 -9.851,14.924 -23.64,60.224c-3.714,12.201 -12.415,21.503 22.242,37.496c-0.088,14.476 -7.403,19.748 6.677,23.847c7.889,2.297 6.804,-1.536 12.803,-7.319c14.639,14.693 16.262,12.816 29.241,29.221c7.607,9.615 7.271,17.781 17.039,9.999c1.827,-1.455 13.717,-70.091 17.513,-79.403c1.256,-3.082 12.33,-30.247 14.895,-38.85c2.539,-8.515 3.644,-7.793 10.176,-13.884l14.727,2.32c-1.304,0.935 -7.84,-3.725 -10.726,11.748c-2.474,13.267 -11.828,32.763 -18.61,63.457c-10.835,49.03 -10.237,57.914 -9.895,63.005c-0.764,0.264 -19.27,2.098 -3.032,18.301c13.668,13.639 11.598,14.982 23.344,30.528c40.358,53.415 71.232,113.402 79.003,126.532c18.184,30.724 207.352,486.638 210.84,492.831c13.439,23.857 12.773,23.928 24.122,49.099c3.644,8.083 3.285,7.953 6.751,15.962c24.4,56.391 30.426,53.536 51.099,111.395c7.248,20.284 12.518,19.099 13.181,19.966c0,0 98.011,130.936 90.272,163.251c-15.244,63.655 -148.198,149.117 -153.677,154.176c-56.293,23.832 -67.106,43.223 -83.312,24.755c-36.348,-41.421 -29.71,-45.519 -69.466,-121.685c-8.862,-16.979 -111.157,-259.857 -124.909,-303.684c-2.23,-7.106 -0.917,-7.762 -6.282,-12.733c-5.315,-4.925 -7.545,-0.75 -8.581,-0.853c11.293,46.84 31.095,239.366 -11.166,296.372c-36.894,49.766 -38.416,59.716 -102.057,87.302c-6.952,3.013 -323.349,62.529 -330.532,65.285c-5.151,-0.652 -4.87,-1.921 -10.02,-1.268c-2.677,0.34 -27.599,-0.849 -29.997,-0.963c-3.627,-0.173 -63.156,6.733 -72.814,4.357c-36.367,-8.945 -36.624,-0.521 -73.772,-0.987c-12.78,-0.16 -29.073,-1.403 -49.053,1.312c-7.265,0.987 -12.67,-0.162 -13.746,-0.391c-5.476,-1.164 -4.896,-2.405 -10.317,-3.235c-1.094,-0.167 -0.89,0.474 -12.21,6.503c-47.534,-7.732 -47.89,-3.377 -95.058,-12.188c-3.076,-0.575 -24.626,1.544 -47.771,-10.731c-12.671,-6.72 -27.983,-14.841 -20.019,-178.158c2.519,-51.663 6.237,-51.129 10.807,-102.476c0.908,-10.197 0.696,-10.051 -0.527,-20.231c-1.531,-1.971 -3.062,-3.943 -4.593,-5.914c-11.528,-6.546 -127.994,-36.977 -134.91,-174.069c-7.346,-145.618 15.786,-170.514 67.401,-296.868c34.452,-84.34 96.48,-176.268 106.25,-190.748c23.561,-34.919 21.707,-35.793 45.49,-70.598c27.259,-39.89 27.782,-39.366 51.669,-81.161c12.818,-22.428 62.454,-85.509 68.147,-92.745c20.351,-25.864 26.66,-52.187 125.953,-65.056c6.789,-1.076 13.578,-2.152 20.366,-3.228c2.132,0.311 2.055,-5.233 4.187,-4.923c0.631,0.092 -2.711,2.933 4.947,6.253c2.784,1.207 2.263,-3.127 5.143,-1.878c17.02,-1.187 37.756,0.329 39.562,-9.501c5.154,-28.054 -2.057,-27.932 -2.379,-58.632c-0.26,-24.776 -1.653,-24.588 -0.043,-49.279c1.198,-18.379 7.945,-13.596 11.685,-14.402Z" style="fill:#222b62;"/><path d="M2715.589,902.293c172.034,-35.181 279.074,39.162 291.187,109.22c15.882,91.856 14.876,134.417 14.599,146.165c-0.315,14.097 0.667,29.495 -6.937,34.681c-9.129,6.226 -15.155,3.623 -12.66,14.314c0.317,1.358 0.405,1.226 5.474,16.545c6.433,14.749 4.072,17.005 12.072,20.349c9.362,3.914 9.715,2.522 126.02,-14.382c42.522,-6.18 42.944,-9.154 42.797,-12.723c-0.162,-3.933 -18.775,-41.579 -21.407,-67.841c1.346,-1.815 9.496,-12.801 27.738,-5.316c13.808,5.666 -7.235,17.038 -3.051,22.394c0.268,0.343 33.458,1.789 22.058,15.806c-0.146,0.179 -12.444,6.399 -12.428,10.336c0.029,7.433 35.545,9.055 16.126,27.723c-2.679,2.576 -2.448,2.551 -4.966,5.177c-22.225,18.085 -66.504,14.938 -134.453,27.793c-24.514,4.638 -24.317,4.869 -49.259,6.052c-18.861,0.894 -4.596,12.275 -10.971,60.017c-2.742,20.531 6.51,17.745 29.878,30.795c8.262,4.614 67.037,37.437 96.301,68.697c5.779,5.447 60.437,62.949 86.91,104.684c21.191,33.408 21.727,32.968 38.925,68.557c0.766,1.585 1.24,1.085 10.224,19.487c2.67,5.469 83.621,201.622 98.511,274.679c8.879,43.566 37.062,107.534 42.885,253.547c1.413,35.422 3.712,35.176 -1.047,102.639c-5.325,75.487 -0.53,75.446 -7.513,151.119c-5.44,58.954 12.288,80.451 -57.761,135.569c-65.227,19.365 -67.314,32.314 -111.933,58.643c-11.869,7.004 -29.845,-1.687 -32.508,-18.462c-10.789,-67.958 -9.359,-103.015 -8.992,-111.996c0.485,-11.891 -13.575,-192.741 -35.737,-258.99c-1.152,-3.443 -2.504,-6.818 -3.672,-10.256c-6.071,-17.871 -4.65,-45.212 -14.208,-41.072c-5.113,2.214 -5.976,85.911 -21.028,134.618c-20.722,67.052 -20.736,74.226 -45.98,116.131c-14.907,24.745 -13.17,32.581 -55.092,56.94c-20.592,16.686 -23.677,10.147 -65.619,26.544c-3,1.173 -19.354,7.566 -38.773,10.839c-16.863,2.842 -15.608,8.832 -16.004,9.193c3.52,10.196 20.095,74.286 93.418,122.132c0.212,6.826 0.571,6.705 -1.464,13.291c-6.596,-1.475 -20.113,-4.497 -65.573,-53.263c-23.061,-24.738 -41.274,-80.146 -46.418,-80.501c-3.812,-0.263 -2.647,5.536 -46.732,9.892c-34.291,3.388 -34.039,4.945 -68.532,3.889c-5.125,-0.157 -4.175,7.547 -63.646,7.535c-12.37,-0.003 -11.95,3.346 -24.466,2.621c-4.715,-0.273 -157.752,10.832 -209.905,7.171c-12.083,-0.848 -11.821,0.982 -24.025,-0.359c-31.301,-4.737 -31.269,0.001 -62.737,-0.539c-88.466,-27.137 -79.095,-51.644 -88.112,-139.461c-1.035,-10.084 0.153,-40.348 -3.265,-62.714c-2.373,-15.528 -6.13,-16.002 4.118,-48.885c28.587,-91.726 24.731,-92.603 47.846,-185.881c2.488,-10.038 15.532,-84.218 37.687,-166.465c2.722,-10.105 13.655,-69.855 18.944,-83.228c3.281,-8.295 9.125,-10.089 1.343,-14.618c-16.478,-9.589 -20.747,59.718 -51.198,170.655c-13.623,49.63 -14.115,98.007 -66.389,273.964c-11.177,37.623 -3.08,38.304 -4.503,48.967c-13.951,104.541 -29.686,100.148 -63.195,200.292c-2.279,6.811 -5.284,5.266 -34.58,82.85c-39.057,103.436 -55.437,118.267 -108.099,94.854c-26.354,-9.166 -26.619,-7.796 -53.02,-16.856c-16.468,-5.651 -17.168,-11.34 -32.438,-3.008c-10.41,-2.524 -10.473,-2.212 -11.242,-2.726c-18.92,-12.631 15.132,-110.912 30.376,-174.567c7.739,-32.315 8.715,-52.395 9.211,-53.723c4.394,-11.772 3.944,-11.809 4.178,-24.438l4.673,-10.09c6.181,-11.511 4.955,-44.795 4.811,-48.708c-1.141,-30.998 7.405,-49.332 7.707,-63.456c0.683,-31.943 -4.389,-32.89 43.149,-219.268c19.306,-75.69 29.015,-94.432 31.338,-103.311c15.603,-59.637 52.91,-141.131 53.836,-146.37c7.064,-39.966 40.333,-94.765 52.409,-132.341c8.647,-26.907 35.786,-75.736 39.651,-87.635c18.474,-56.874 28.006,-52.679 38.27,-83.152c4.334,-12.866 5.879,-11.917 12.485,-23.63c3.34,-5.922 33.507,-59.404 45.082,-72.041c47.418,-51.768 121.11,-68.048 155.193,-78.21c14.697,-0.904 14.508,1.601 29.019,0.552c44.775,-3.238 44.815,-0.432 48.691,-0.827c51.832,-5.285 51.956,1.984 87.82,-1.516c8.593,-0.839 103.248,-10.075 107.434,-10.27c158.158,-7.358 161.874,-7.358 175.963,-7.359c9.747,1.753 9.534,1.717 19.182,1.001c1.516,-0.35 18.49,-4.265 18.874,-4.696c5.887,-6.588 7.081,-24.306 7.228,-26.499c0.125,-1.851 -1.547,-3.53 -1.422,-5.381c5.945,-36.774 -9.121,-76.199 -11.497,-82.418c-12.768,-33.413 -30.563,-21.134 -61.646,-30.432c-7.458,-2.231 -4.153,-30.345 -5.408,-43.425c-4.826,-50.3 -8.131,-62.951 -9.526,-68.287c-8.727,-59.387 -60.535,-75.097 -68.451,-77.498c-63.314,-19.199 -89.278,-7.993 -111.092,1.521c-15.94,6.953 -44.887,34.428 -54.356,62.607c-24.75,10.37 -28.914,83.334 -27.292,100.696c9.977,30.757 13.866,30.109 12.181,49.159c-13.02,3.806 -12.957,4.14 -35.329,2.587c-2.808,0.067 -5.616,0.135 -8.425,0.202c-17.689,4.673 -63.259,18.076 -69.241,7.56c-5.061,-8.897 -13.787,-24.236 -12.077,-127.381c0.823,-49.644 25.272,-125.742 92.496,-163.703c23.092,-13.04 20.72,-19.122 47.301,-21.941c2.822,-0.299 2.544,-1.264 33.683,-11.138Z" style="fill:#020202;"/><path d="M2447.95,2532.916c12.204,1.341 11.942,-0.489 24.025,0.359c52.153,3.661 205.19,-7.444 209.905,-7.171c12.516,0.725 12.096,-2.624 24.466,-2.621c59.471,0.013 58.521,-7.692 63.646,-7.535c34.493,1.056 34.24,-0.501 68.532,-3.889c44.084,-4.356 42.919,-10.155 46.732,-9.892c5.144,0.355 23.357,55.763 46.418,80.501c45.46,48.766 58.978,51.788 65.573,53.263c-0.606,4.356 1.781,4.473 -3.625,54.86c-3.106,28.952 1.497,34.821 -15.784,165.824c-3.895,29.53 -1.091,29.537 -5.852,59.054c-6.341,93.76 -6.068,93.598 -1.34,180.435c1.615,29.661 -4.176,146.536 15.57,229.116c24.014,100.43 18.537,101.582 47.24,200.605c1.583,5.46 1.024,5.501 17.618,68.844c4.049,15.455 2.362,35.473 2.103,38.551l-4.128,5.039l-6.434,4.006c-0.52,-1.239 3.527,-1.447 3.007,-2.687c-1.279,-3.049 -5.291,-4.175 -7.057,-6.97c-0.822,-1.301 1.27,-4.45 -0.261,-4.609c-0.882,-0.092 0.441,2.264 -9.461,5.781c-1.454,0.517 -3.107,0.526 -4.446,1.294c-5.065,2.905 -6.184,-1.309 -10.959,2.255c-9.84,7.345 -8.954,8.124 -15.045,13.437c-0.918,0.801 -19.031,7.819 -34.895,20.175c-10.276,8.004 -9.34,10.441 -13.524,9.49c-1.704,-0.387 -6.28,-6.159 -20.095,5.099c-6.91,5.631 -8.657,4.206 -11.583,12.551c-1.172,3.343 6.963,9.788 8.199,10.817l-5.307,2.439c-21.956,10.253 -22.478,8.344 -44.098,19.284c-15.276,7.73 -14.808,10.075 -31.863,9.783c-9.425,-47.505 -26.022,-76.532 -29.785,-107.393c-1.295,-10.621 -5.878,-15.473 -5.906,-24.267c-0.167,-52.253 -20.196,-70.384 -33.696,-156.323c-6.185,-39.371 -11.25,-38.295 -15.56,-78.028c-2.948,-27.175 -30.146,-197.913 -32.884,-215.105c-7.723,-48.482 -6.342,-48.481 -11.977,-97.287c-8.217,-71.166 -19.698,-82.357 -25.551,-327.184c-0.952,-39.83 6.788,-95.579 -13.341,-88.984c-10.254,3.36 -3.696,101.41 -16.771,162.559c-2.171,10.153 1.579,88.633 -6.721,151.066c-0.117,0.882 -13.194,125.815 -14.339,136.756c-1.642,15.689 0.59,126.29 -20.765,331.866c-0.871,0.397 -10.889,4.958 -10.889,4.958c-0.549,0.619 0.166,0.787 -4.381,9.369c-3.433,6.479 -0.482,19.74 -0.48,19.928c0.036,3.272 -1.393,6.516 -1.004,9.766c0.184,1.538 2.327,2.312 2.632,3.831c0.363,1.808 2.102,18.935 2.269,20.583c0.995,9.798 4.619,7.564 5.914,9.684c-0.469,13.321 -1.102,13.201 -13.517,166.07c-3.971,48.9 -13.673,66.143 -13.429,102.496c0.013,2.001 0.032,4.724 -4.466,24.615c-37.72,34.848 -52.291,23.226 -123.284,28.912c-26.99,2.161 -26.549,-1.134 -73.353,-8.48c-22.527,-3.536 -22.629,2.222 -24.275,1.188c-2.8,-1.76 -3.423,-5.966 -6.223,-7.726c12.571,-34.717 -1.006,-40.982 2.386,-136.068c2.108,-59.083 -3.317,-59.329 7.931,-117.312c9.001,-46.401 -4.626,-133.75 11.92,-199.641c9.989,-39.779 -4.984,-50.29 7.467,-142.166c1.846,-13.62 -1.443,-77.089 -1.501,-77.987c-0.885,-13.639 -1.086,-16.742 4.041,-170.795c0.307,-9.215 4.432,-8.875 9.804,-122.094c0.369,-7.778 -1.605,-139.401 -0.702,-141.871c0.937,-2.563 5.016,-3.057 5.952,-5.62l4.341,-1.014c44.842,-22.366 81.213,-145.695 65.864,-153.484c-0.973,-0.494 -2.223,1.2 -3.196,0.706c-1.812,1.113 -3.624,2.226 -5.437,3.339c-1.092,10.2 -0.876,9.967 -2.911,20.264c-12.518,50.32 -18.571,67.601 -56.83,115.863c-4.101,5.174 -1.932,5.744 -3.433,10.209c-2.83,-3.501 -4.424,-1.158 -7.33,-4.753c-0.247,-0.305 -0.278,-0.344 -0.459,-4.883c-0.155,-3.901 -1.496,-37.576 -3.91,-48.644c-3.208,-14.706 -1.782,-14.676 0.002,-29.467c1.725,-14.305 -12.316,-19.123 0.553,-63.491c17.857,12.554 21.382,5.173 39.881,3.976c4.951,-0.32 9.924,0.116 14.884,0.004c1.352,-0.03 16.217,-0.364 16.271,-4.585c0.016,-1.241 -0.746,-0.73 -11.082,-10.848Z" style="fill:#142034;"/><path d="M1874.565,729.896c-0.985,4.735 -2.569,4.161 -18.1,57.68c-0.863,2.973 -50.566,145.559 -54.736,152.994c-1.878,3.349 -1.753,3.343 -53.442,110.086c-9.842,20.325 -7.817,32.302 -17.805,26.039c-6.652,-4.172 -29.379,-201.164 -32.333,-283.861c-2.091,-58.531 -10.051,-75.477 -7.11,-131.834c0.224,-4.284 -0.649,-4.065 1.734,-53.599c0.439,-9.133 -0.132,-81.647 48.205,-75.397c27.947,3.614 38.446,29.145 47.607,129.124c3.016,32.916 -8.273,71.375 0.668,75.46c1.108,0.506 5.342,2.441 8.594,-12.565c7.516,-34.682 5.322,-35.032 17.753,-72.249c17.383,-52.04 15.298,-129.586 71.573,-126.77c52.552,2.629 5.844,135.543 -12.607,204.893Z" style="fill:#e65d3d;"/><path d="M2774.848,2114.542c-7.466,-11.126 -10.459,-12.156 -3.731,-23.666c1.045,-1.788 6.525,-11.165 22.928,-12.022c84.616,-4.42 113.041,-13.727 161.384,-16.491c83.802,-4.791 106.62,-24.03 103.52,13.183c-0.49,5.887 5.24,6.511 -8.281,62.916c-15.268,63.695 -14.794,63.758 -16.381,69.223c-16.778,57.803 -12.563,88.487 -78.689,99.097c-88.068,14.13 -116.95,12.489 -127.15,11.909c-7.65,-0.435 -59.928,-3.406 -56.946,-77.013c0.713,-17.609 0.081,-65.501 0.594,-73.064c3.391,-49.936 2.383,-49.757 2.752,-54.072Z" style="fill:#c0c8b9;"/><path d="M964.86,1730.838c14.868,19.069 8.686,21.173 8.679,29.054c-0.007,8.808 4.25,8.741 0.934,19.528c-2.521,8.201 3.779,8.455 -1.603,107.238c-0.426,7.811 1.649,7.608 1.799,9.276c0.166,1.852 -1.654,3.791 -0.923,5.501c1.247,2.917 5.072,4.199 6.319,7.115c-1.481,1.29 -7.94,-1.469 -8.124,12.113c-0.26,19.181 -3.322,88.577 -1.151,92.912c0.12,0.239 0.276,-1.434 3.33,0.316c2.963,1.698 1.875,2.667 4.707,4.289c-0.8,0.641 -10,8.013 -10,8.013c-5.554,1.248 -6.561,-2.175 -38.051,13.026c-1.033,-0.526 -9.76,-8.587 -20.145,-5.903c-23.734,6.135 -23.786,5.324 -48.454,6.009c-0.747,0.021 -7.74,-2.174 -6.014,8.276c1.385,8.383 -0.479,7.939 -4.958,14.801c-7.974,-23.029 -12.524,-22.787 -14.682,-22.672c-94.176,5.008 -91.92,-18.306 -86.965,-23.541c1.196,-1.263 3.93,2.244 5.126,0.98c-8.748,-1.855 -10.067,-5.426 -23.487,0.794c-16.428,-55.115 -26.228,-71.935 -37.447,-116.352c-8.133,-32.2 -12.152,-30.885 -19.411,-63.454c-2.268,-10.177 0.834,-10.849 2.056,-14.584c43.461,-5.751 49.091,2.441 107.365,-8.402c9.725,-1.456 9.448,-1.279 19.384,-2.026c4.867,-0.965 9.735,-1.931 14.602,-2.896c3.342,-0.366 6.685,-0.731 10.027,-1.097l9.098,-2.511c7.494,6.288 7.548,6.624 8.281,16.585c2.982,40.511 2.599,67.053 2.515,72.886c-0.101,7.008 3.417,9.826 87.416,5.764c6.813,-0.33 22.591,-1.652 22.674,-1.72c4.304,-3.571 6.942,-120.561 -0.098,-124.313c-0.897,-0.478 -1.527,1.892 -12.254,-3.385c-2.01,-0.989 -3.282,-3.252 -5.387,-4.02c-2.493,-0.909 -2.551,1.498 -4.962,0.247c-3.789,-1.966 -1.975,-3.846 -5.746,-5.803c2.519,-2.041 5.039,-4.082 7.558,-6.123c2.049,-1.248 4.099,-2.495 6.148,-3.743l2.337,-2.466c1.528,-1.608 9.551,-10.053 19.504,-19.713Z" style="fill:#d0ddc2;"/><path d="M7.324,-25c-1.531,10.958 -1.694,10.702 -1.687,21.987c2.821,4564.155 -2.92,4564.134 -0.061,4961.004c0.072,10.063 1.519,11.306 11.435,11.416c33.988,0.377 33.805,0.026 424.881,-0.042c3063.263,-0.534 3063.382,0.426 3078.611,-1.688c-2.243,0.961 2.243,6.359 0,7.319c-7.001,2.999 -7.386,0 -95.21,0l-3425.293,0c-2.385,-5.565 -0,-5.892 0,-75.679l0,-4924.316c0.772,-2.316 6.552,2.316 7.324,0Z" style="fill:#3e3e3e;fill-opacity:0.06;"/><path d="M2789.612,2115.646c80.228,-13.927 81.23,-4.506 107.265,-9.401c68.521,-12.885 70.392,-0.372 137.865,-18.714c17.414,-4.734 9.842,15.376 6.953,26.744c-38.216,150.354 -32.759,154.858 -48.294,164.65c-15.623,9.848 -15.921,10.634 -120.853,27.456c-9.76,1.565 -53.632,1.986 -62.513,-2.833c-27.031,-14.668 -25.601,-53.748 -26.472,-96.143c-0.454,-22.085 2.081,-21.726 1.371,-43.951c-1.32,-41.386 2.232,-40.796 4.678,-47.806Z" style="fill:#020202;"/><path d="M3212.21,1224.742c11.92,3.562 11.799,3.863 12.874,3.847c31.049,-0.443 30.663,3.282 33.341,3.191c1.677,-0.057 2.888,-2.209 4.564,-2.127c2.073,0.102 3.572,2.527 5.645,2.629c-1.208,19.751 6.424,22.167 8.884,42.576c7.003,58.107 5.793,58.165 6.726,63.159c7.393,39.556 3.024,53.597 8.754,71.691c-2.756,1.461 -2.838,6.042 -5.594,7.503c-1.53,0.811 -3.065,-1.998 -4.796,-1.994c-1.779,0.004 -3.207,1.623 -4.942,2.017c-35.291,8.003 -98.616,5.427 -112.031,-1.776c-12.729,-6.835 -13.426,-2.854 -21.928,2.638c-29.263,-31.261 -88.038,-64.083 -96.301,-68.697c-23.368,-13.05 -32.62,-10.264 -29.878,-30.795c6.375,-47.742 -7.89,-59.123 10.971,-60.017c24.942,-1.183 24.745,-1.414 49.259,-6.052c67.949,-12.855 112.228,-9.708 134.453,-27.793Z" style="fill:#cdd0c4;"/><path d="M1156.294,1178.45c38.256,20.667 34.461,25.495 72.369,46.262c104.892,57.462 317.69,102.94 311.293,177.907c-0.526,6.162 -2.352,11.581 -15.184,23.714c-47.899,5.957 -45.429,3.26 -99.332,-9.124c-14.314,-1.567 -14.142,-8.394 -80.173,-8.71l-20.331,-11.298c-44.504,-1.396 -94.035,-39.658 -137.567,-46.346c-34.64,-8.997 -65.493,-69.797 -42.084,-74.014c5.095,-1.625 -16.384,-25.878 -0.648,-44.703c20.555,-24.589 -23.974,-51.354 11.658,-53.689Z" style="fill:#59331e;"/><path d="M1094.75,1102.754c19.081,15.024 17.109,16.834 34.998,33.437c19.161,26.006 30.469,79.351 19.908,84.587c-1.527,0.757 -108.954,13.416 -131.232,-71.665c-0.155,-0.594 -1.924,-7.349 -2.586,-7.223c-1.579,0.301 -1.268,3.274 -2.707,3.991c-1.2,0.598 -3.016,-1.611 -3.966,-0.666c-0.972,0.967 -4.106,17.144 -20.849,32.891c-24.822,23.346 -61.283,60.313 -93.586,64.071c-8.135,-4.805 -4.54,-32.703 22.694,-91.133c4.235,-7.364 33.855,-58.87 81.542,-68.022c2.656,-0.51 2.876,2.974 33.736,-2.161c3.56,-0.592 24.988,-1.043 62.049,21.894Z" style="fill:#59331e;"/><path d="M2682.291,1066.251c9.469,-28.178 38.415,-55.654 54.356,-62.607c21.814,-9.515 47.778,-20.721 111.092,-1.521c7.916,2.4 59.724,18.111 68.451,77.498c-28.721,4.317 -46.137,4.953 -73.402,-4.205c-40.969,-13.762 -41.6,-3.684 -83.246,7.245c-9.337,2.45 -45.589,5.72 -77.252,-16.409Z" style="fill:#38322a;"/><path d="M1062.516,2134.178c-1.524,-1.744 -6.363,0.129 -8.931,-13.504c-0.141,-0.749 -1.087,-5.775 -1.125,-9.462c-0.064,-6.293 -0.112,-11.116 -11.294,-77.857c-3.084,-18.409 19.027,-84.696 45.514,-79.759c19.33,3.603 7.799,28.873 6.739,31.196c-6.961,15.254 11.782,5.598 12.759,5.095c29.508,-15.203 95.328,-7.736 57.019,57.046c-10.82,18.297 -87.121,81.856 -96.079,86.661c-1.363,0.731 -3.24,-0.145 -4.603,0.586Z" style="fill:#b9a07a;"/><path d="M925.821,1765.691l3.492,-2.809c3.771,1.957 1.957,3.837 5.746,5.803c2.411,1.251 2.469,-1.156 4.962,-0.247c2.105,0.767 3.376,3.031 5.387,4.02c10.727,5.276 11.356,2.906 12.254,3.385c7.04,3.753 4.402,120.742 0.098,124.313c-0.082,0.068 -15.861,1.391 -22.674,1.72c-84,4.063 -87.517,1.244 -87.416,-5.764c0.084,-5.834 0.467,-32.375 -2.515,-72.886c-0.733,-9.961 -0.787,-10.298 -8.281,-16.585c33.237,-9.475 32.245,-11.623 48.768,-18.575c10.343,-4.217 10.107,-4.089 19.674,-9.672c3.902,-2.582 7.804,-5.164 11.706,-7.745c4.66,-2.187 4.493,-1.916 8.801,-4.957Z" style="fill:#d7e5cb;"/><path d="M1195.23,2271.979c-8.391,-40.9 -10.699,-50.482 4.781,-60.827c21.545,-14.398 21.335,1.819 25.776,27.365c2.32,13.343 47.839,159.814 50.061,166.032c2.489,6.968 29.167,81.647 31.8,86.851c17.2,34.001 -15.075,35.686 -31.279,25.639c-9.662,-5.991 -54.279,-147.123 -64.5,-185.698c-3.369,-12.714 -8.382,-11.272 -16.639,-59.363Z" style="fill:#fff;"/><path d="M3166.734,1148.621c2.632,26.262 21.245,63.908 21.407,67.841c0.147,3.569 -0.276,6.542 -42.797,12.723c-116.304,16.904 -116.658,18.296 -126.02,14.382c-8,-3.345 -5.639,-5.601 -12.072,-20.349c-5.068,-15.319 -5.157,-15.187 -5.474,-16.545c-2.495,-10.69 3.531,-8.088 12.66,-14.314c7.604,-5.186 6.621,-20.584 6.937,-34.681c3.091,3.956 5.029,1.021 8.025,4.854c0.241,0.309 0.178,0.227 -0.415,4.883c-2.283,17.924 7.213,16.785 23.356,8.413c39.142,-20.301 102.662,-32.92 108.109,-31.647c2.498,0.584 3.787,3.856 6.285,4.44Z" style="fill:#c9ccc1;"/><path d="M3025.689,2453.931c10.235,12.994 9.102,14.893 -3.323,65.657c-8.216,33.564 -15.696,92.64 -18.585,98.023c-1.126,2.097 -3.944,2.932 -5.07,5.029c-73.322,-47.847 -89.897,-111.936 -93.418,-122.132c0.396,-0.361 -0.859,-6.351 16.004,-9.193c19.419,-3.273 35.774,-9.667 38.773,-10.839c41.942,-16.397 45.027,-9.857 65.619,-26.544Z" style="fill:#142034;"/><path d="M851.173,1964.535c0.098,-43.319 -6.156,-50.504 5.733,-50.025c81.471,3.284 81.234,-4.555 96.484,-2.013c7.584,1.264 4.621,5.27 4.2,96.017c-0.084,18.212 -9.176,10.57 -27.249,12.078c-7.65,0.638 -39.534,6.323 -63.604,6.476c-16.593,0.106 -11.533,-8.002 -11.917,-13.293c-1.088,-15 -1.522,-14.631 -2.452,-29.511c-1.086,-17.379 -1.097,-17.101 -1.196,-19.731Z" style="fill:#d7e5cb;"/><path d="M1683.063,1518.354c26.329,23.995 34.673,41.466 44.422,59.139c-1.466,2.658 -4.824,3.928 -6.29,6.586c-0.765,1.388 0.767,3.347 0.037,4.754c-1.736,3.345 -30.024,45.783 -32.664,49.744c-15.807,23.715 -19.605,21.435 -29.896,48.079c-2.329,6.03 -3.154,5.37 -12.12,15.212c-4.365,-1.102 -14.13,-3.568 -47.089,-30.823c-3.752,-2.714 -7.504,-5.429 -11.255,-8.143c16.183,-19.502 16.938,-18.67 29.125,-40.685c35.817,-64.701 54.672,-82.497 65.73,-103.864Z" style="fill:#a18d6d;"/><path d="M1622.487,1472.828c25.534,9.195 43.432,27.768 60.575,45.526c-11.058,21.366 -29.913,39.163 -65.73,103.864c-12.187,22.014 -12.942,21.183 -29.125,40.685c-15.677,-6.544 -36.856,-24.756 -37.842,-25.504c31.441,-62.483 26.485,-64.551 57.062,-127.303c0.504,-1.035 8.275,-24.082 11.91,-28.8c1.707,-2.215 4.777,-3.485 5.752,-6.106c0.408,-1.098 -3.011,-1.264 -2.602,-2.362Z" style="fill:#ae997a;"/><path d="M1545.862,1436.827c23.184,1.116 46.649,17.189 63.642,27.701c-39.032,84.01 -40.241,105.696 -70.839,164.822c-21.335,-10.835 -26.099,-14.006 -41.733,-26.882c-1.739,-1.331 -3.477,-2.663 -5.216,-3.994c1.545,-1.447 3.976,-1.693 5.521,-3.14c6.042,-5.658 7.83,-33.451 24.832,-69.452c3.602,-7.627 19.019,-74.796 23.794,-89.055Z" style="fill:#af9b7d;"/><path d="M1457.044,1409.699c39.045,9.693 37.256,21.586 71.952,16.924l7.131,5.086c-28.044,58.356 -11.682,64.733 -33.441,99.355c-11.806,18.786 -5.611,21.047 -20.682,62.515c-4.324,-1.946 -12.057,-5.425 -53.688,-25.113c6.537,-16.531 7.471,-22.093 7.806,-24.091c8.331,-49.631 25.762,-77.433 28.874,-111.844c1.434,-15.857 -8.484,-10.184 -13.151,-10.216c0.711,-1.289 -0.403,-3.117 0.309,-4.406c1.76,-3.19 2.973,-1.792 4.836,-4.919c0.925,-1.553 -0.931,-1.636 0.054,-3.289Z" style="fill:#af9b7d;"/><path d="M1727.485,1577.493c5.196,7.479 5.297,7.197 10.095,15.071c19.215,31.53 42.429,37.219 41.363,49.753c-1.291,15.184 -23.188,-6.034 -27.95,-3.723c-11.899,5.774 26.415,31.072 18.701,42.767c-10.379,15.735 -24.469,-14.435 -33.642,-13.504c-19.096,1.938 14.593,34.438 8.95,42.535c-7.87,11.292 -24.174,-16.75 -33.025,-12.944c-22.237,9.562 -1.926,33.939 -2.63,37.489c-3.78,19.042 -34.59,-12.678 -37.12,-14.103c-14.067,-7.923 -15.01,-6.522 -25.674,-18.964c8.966,-9.842 9.792,-9.182 12.12,-15.212c10.291,-26.644 14.088,-24.365 29.896,-48.079c2.641,-3.961 30.928,-46.399 32.664,-49.744c0.73,-1.406 -0.802,-3.366 -0.037,-4.754c1.466,-2.658 4.824,-3.928 6.29,-6.586Z" style="fill:#736348;"/><path d="M1398.969,1406.143c47.83,0.248 47.706,2.329 58.074,3.556c-0.985,1.654 0.871,1.736 -0.054,3.289c-1.863,3.127 -3.076,1.729 -4.836,4.919c-0.711,1.289 0.403,3.117 -0.309,4.406c-10.627,39.792 -10.302,39.607 -21.714,78.907c-16.177,55.713 -17.732,55.179 -18.671,60.127c-0.218,1.148 2.611,1.411 2.394,2.559c-4.398,-1.361 -36.836,-11.398 -54.116,-19.553c-0.342,-5.091 -0.939,-13.974 9.895,-63.005c6.783,-30.694 16.136,-50.191 18.61,-63.457c2.886,-15.473 9.422,-10.813 10.726,-11.748Z" style="fill:#af9b7d;"/><path d="M2011.186,2678.677c15.27,-8.332 15.969,-2.643 32.438,3.008c26.401,9.06 26.666,7.69 53.02,16.856c1.632,7.107 1.532,7.09 1.763,7.676c0.804,2.048 3.525,3.018 4.16,5.125c0.498,1.652 -1.202,3.339 -1.089,5.061c0.092,1.403 1.584,2.468 1.676,3.871c-0.841,0.12 -4.37,-3.756 -10.083,1.437c-0.211,0.192 -0.594,0.54 -1.856,3.042c-4.852,9.626 -3.32,10.722 -29.629,39.383c-5.635,6.139 0.939,11.684 1.133,12.408c-34.249,2.594 -35.062,19.645 -58.414,13.293c-30.022,-8.166 -13.496,-55.893 -13.658,-56.32c-0.754,-1.994 -4.917,-0.964 -5.671,-2.958c5.478,-5.058 8.104,-3.254 17.721,-25.31c5.64,-12.935 5.284,-12.922 8.489,-26.574Z" style="fill:#cacdc1;"/><path d="M979.056,1320.068c9.721,1.203 9.478,1.22 19.353,-0.062l5.124,0.419c7.009,3.4 6.748,3.832 14.575,4.767c-3.747,72.106 6.393,104.296 5.29,127.943c-10.207,1.278 -60.197,3.565 -63.265,2.19c-2.511,-1.125 -1.549,-2.074 -6.485,-42.183c-3.977,-32.317 -1.46,-67.182 -1.04,-73.009c0.565,-7.834 -2.003,-7.045 -2.895,-10.184c1.515,-0.267 2.944,1.451 4.459,1.185c3.099,-0.545 9.353,-4.138 10.124,-4.581c3.251,-1.868 5.86,-4.829 9.292,-6.337c1.669,-0.733 3.798,0.586 5.467,-0.147Z" style="fill:#a89371;"/><path d="M1363.342,1901.68c0.421,35.94 15.614,69.845 13.164,126.568c-0.135,3.13 3.078,2.695 3.183,39.029c0.046,16.061 9.531,29.185 11.901,82.437c7.31,48.602 5.898,86.513 22.959,131.938c5.891,15.686 4.108,16.629 -5.456,30.543c-18.381,-14.248 -12.164,-20.277 -21.007,-54.192c-13.99,-53.658 -5.729,-54.785 -16.478,-118.003c-1.64,-39.519 -29.406,-236.48 -19.692,-246.534c7.154,-7.405 8.758,-1.559 11.425,8.214Z" style="fill:#fff;"/><path d="M1100.791,1317.391c14.697,-2.949 14.658,-1.864 29.535,-2.49c14.183,-0.597 14.464,6.831 15.372,7.079c0,0 10.265,-5.605 11.158,-6.092l0.628,4.677c-5.112,16.494 -6.434,16.295 -5.594,23.523c7.51,64.676 -1.264,86.521 2.878,107.448c-4.262,-0.484 -31.262,-3.547 -53.592,-1.497c-8.301,-27.769 1.043,-28.389 -1.813,-51.414c-5.045,-40.671 6.712,-40.757 1.428,-81.234Z" style="fill:#aa9372;"/><path d="M1320.812,1396.9c31.533,5.234 31.193,5.831 63.43,6.923c-6.531,6.091 -7.637,5.369 -10.176,13.884c-2.566,8.604 -13.639,35.768 -14.895,38.85c-3.796,9.312 -15.686,77.948 -17.513,79.403c-9.768,7.783 -9.432,-0.384 -17.039,-9.999c-12.979,-16.405 -14.602,-14.528 -29.241,-29.221c-3.24,-5.58 -5.072,-7.125 -2.01,-19.958c2.698,-11.307 22.837,-63.586 24.909,-67.947c0.764,-6.118 1.61,-5.76 2.534,-11.936Z" style="fill:#ad997a;"/><path d="M3268.633,1232.282c14.601,0.176 13.046,4.155 20.932,16.749c10.46,16.703 37.735,-0.422 36.909,20.924c-0.506,13.072 -33.057,14.238 -18.053,27.766c5.524,4.981 38.484,2.617 28.803,21.71c-3.215,6.341 -43.014,13.03 -11.21,19.974c15.345,3.351 13.315,20.712 5.596,23.733c-3.502,1.371 -7.237,2.072 -10.773,3.353c-0.992,0.359 -15.595,7.381 5.029,12.186c21.586,5.029 5.311,32.787 -32.869,31.031c-5.731,-18.093 -1.361,-32.135 -8.754,-71.691c-0.934,-4.995 0.277,-5.052 -6.726,-63.159c-2.46,-20.409 -10.091,-22.825 -8.884,-42.576Z" style="fill:#242523;"/><path d="M1060.772,1305.568c0.708,1.345 -1.136,3.196 -0.428,4.541c4.227,8.029 6.349,5.437 27.216,12.106c-0.47,4.081 -0.172,3.856 -0.901,7.825c-6.221,33.839 -5.091,33.797 -4.483,68.268c0.035,1.955 -0.297,1.916 -0.239,24.442c0.06,23.595 4.677,22.405 5.869,26.775c0.181,0.662 -1.661,0.767 -1.481,1.429c-24.43,-1.244 -24.261,-0.461 -48.561,0.634c0.546,-8.552 -1.089,-8.434 -3.014,-107.076c-0.253,-12.985 0.945,-13.598 -6.931,-23.698c10.491,-2.531 22.611,-4.095 24.592,-4.351c7.667,-0.99 5.705,-3.724 8.36,-10.896Z" style="fill:#a99574;"/><path d="M920.363,1588.887c7.045,0.011 6.726,-1.462 13.612,-1.268c3.947,15.232 6.053,14.023 15.17,26.835c-6.808,4.375 -16.822,17.404 -16.973,18.956c-0.556,5.725 11.785,16.882 13.11,18.08c9.529,11.222 4.779,18.115 19.435,18.994c9.213,0.553 7.71,3.472 14.078,10.307c-19.522,5.351 -13.467,11.603 -12.726,19.954c0.116,1.305 -0.122,1.125 -5.219,10.882c-4.653,8.908 -4.279,9.188 -5.852,9.843c-7.731,3.22 -7.978,-2.512 -9.095,-2.863c-2.644,-1.863 -3.482,-5.661 -6.126,-7.524c-4.707,-3.317 -14.739,6.451 -15.737,7.422c-0.785,16.374 -6.62,17.326 1.779,47.186c-4.308,3.041 -4.141,2.77 -8.801,4.957c-0.297,-0.565 -6.148,-4.459 -5.912,-15.853c0.91,-43.864 6.419,-43.207 6.263,-58.655c-0.09,-8.913 -1.679,-8.771 0.106,-17.417c14.438,1.538 16.246,4.632 18.756,-1.17c7.191,-16.625 -4.165,-18.123 -9.925,-21.694c-4.941,-4.085 -4.877,-4.101 -5.336,-4.411c-8.922,-6.024 -10.418,3.235 -11.69,4.698c-4.29,5.913 -5.143,5.301 -12.292,4.515c-12.098,-12.15 6.757,-17.293 -2.714,-31.647c-1.971,-2.988 -14.785,-17.606 -9.034,-21.212c2.461,-1.544 4.021,-7.146 11.172,-0.344c17.326,16.482 6.869,-10.785 15.017,-17.618c2.172,-1.821 3.775,-1.992 4.142,-2.032c2.713,-0.29 2.271,1.347 4.79,1.078Z" style="fill:#bb623f;"/><path d="M994.082,1686.784c1.966,2.301 5.202,3.272 7.168,5.573c1.314,1.538 -2.324,177.323 -2.415,204.025c-0.866,0.929 -10.823,11.609 -10.823,11.609c-0.498,0.397 -0.58,0.041 -7.946,0.559c-1.247,-2.917 -5.072,-4.199 -6.319,-7.115c-0.731,-1.71 1.09,-3.649 0.923,-5.501c-0.15,-1.667 -2.225,-1.465 -1.799,-9.276c5.381,-98.783 -0.919,-99.037 1.603,-107.238c3.316,-10.787 -0.941,-10.72 -0.934,-19.528c0.006,-7.881 6.189,-9.985 -8.679,-29.054c16.685,-20.826 15.136,-21.631 29.222,-44.054Z" style="fill:#d3e1c6;"/><path d="M731.198,2017.964c13.42,-6.22 14.739,-2.649 23.487,-0.794c-1.196,1.263 -3.93,-2.244 -5.126,-0.98c-4.955,5.234 -7.211,28.549 86.965,23.541c2.158,-0.115 6.708,-0.357 14.682,22.672l5.649,4.641c-22.889,7.957 -21.777,10.195 -44.373,18.5c-45.404,16.689 -46.54,8.674 -52.168,4.913c-3.928,-9.054 -21.9,-55.616 -29.115,-72.493Z" style="fill:#d6e4c9;"/><path d="M2654.999,1166.947c33.651,-48 79.452,-20.43 83.362,5.778c5.415,36.298 -11.645,40.755 -41.89,42.381c-18.224,0.98 -17.88,-1.451 -26.262,-1.125c-1.232,0.048 -1.797,2.077 -3.029,2.125c1.685,-19.05 -2.204,-18.402 -12.181,-49.159Z" style="fill:#e18b77;"/><path d="M763.599,1687.602c7.081,-0.254 6.735,-0.507 13.536,-1.421c0.203,3.047 1.967,2.214 2.156,5.048c0.224,3.357 -1.441,2.841 -1.416,6.053c0.017,2.122 9.288,5.349 10.167,5.655c5.485,5.1 5.077,5.243 8.533,11.973c-9.299,15.85 -1.355,17.061 -2.125,35.284c-5.037,1.097 -10.074,2.193 -15.11,3.29c-14.802,-10.068 -31.404,-41.644 -36.104,-23.422c-2.039,7.905 1.132,7.364 8.31,19.4c-2.237,6.308 -1.634,6.678 -7.054,10.76c-3.552,0.299 -5.333,-3.104 -13.154,6.141c-2.933,-4.337 -4.983,-1.8 -7.839,-6.025c-0.247,-0.365 -0.442,-0.654 0.04,-5.51c0.157,-1.577 1.08,-3.073 0.97,-4.654c-0.442,-6.34 -13.357,-4.442 -14.028,-3.566c-0.785,1.024 1.415,2.43 1.156,3.694c-0.819,4.007 -2.579,3.711 -1.569,14.255c0.783,8.173 5.102,9.432 5.63,10.407l-5.248,5.045c-1.518,-0.09 -14.689,-0.868 -18.989,0.875c-9.3,3.77 -15.381,-4.732 -16.182,-5.852c-6.94,-9.703 -15.549,-7.857 -16.697,-14.419c-0.206,-1.177 3.847,-3.783 4.241,-4.037c2.266,-1.457 7.847,-1.823 8.546,-1.869c7.921,-0.519 7.541,-1.253 14.787,-4.535c11.298,-7.182 9.559,-8.892 10.132,-9.594c4.308,-3.217 4.662,-2.277 9.167,-5.608c0.752,-0.38 9.397,-4.748 9.397,-4.748c0.61,-1.23 -0.56,-0.95 -8.71,-14.786c0.883,-1.272 -0.72,-3.371 0.163,-4.643c0.43,-0.62 1.188,0.867 8.646,-3.772l3.899,0.571c10.03,9 11.995,13.254 21.907,4.24c26.588,-5.778 25.533,-8.503 27.408,-11.59c4.348,-7.16 2.678,-8.333 -4.566,-12.64Z" style="fill:#ce5c3a;"/><path d="M3065.687,1807.401c-10.919,-49.404 -16.646,-53.659 -8.224,-55.188c3.513,-0.637 8.812,-1.599 18.466,40.633c20.657,90.367 40.285,138.554 56.93,228.542c12.634,68.305 14.073,67.923 15.022,73.879c4.655,29.212 9.354,34.005 3.392,35.012c-14.702,2.485 -12.385,-27.401 -20.972,-59.039c-7.741,-28.522 -5.214,-28.764 -11.206,-57.497c-1.511,-7.247 -15.825,-75.889 -20.554,-90.225c-18.986,-57.559 -17.748,-57.62 -32.855,-116.118Z" style="fill:#a4ac9f;"/><path d="M2906.645,1147.785c7.21,17.315 6.486,17.398 6.648,35.983c0.081,9.281 -4.886,7.279 -65.584,10.927c-49.808,2.993 -27.103,-47.587 -2.836,-55.095c7.418,-2.295 32.348,-20.823 61.772,8.185Z" style="fill:#e28772;"/><path d="M1174.503,1329.09c15.677,5.785 15.288,6.192 30.126,13.918c-0.982,4.979 -4.93,2.529 -5.898,7.435c-0.093,0.47 0.653,0.054 3.47,4.874c3.267,5.588 28.375,48.534 4.62,80.786c-12.868,17.472 -15.535,15.443 -37.23,14.466c-0.204,-2.835 -3.46,-4.865 -3.664,-7.7c-0.339,-4.729 8.287,-3.796 6.573,-58.897c-1.427,-45.865 -7.165,-45.178 -6.649,-49.109c1.142,-8.707 8.478,-5.657 8.652,-5.773Z" style="fill:#a08761;"/><path d="M1277.297,1382.492c3.405,1.362 18.423,7.367 43.515,14.408c-0.924,6.176 -1.77,5.818 -2.534,11.936c-7.768,-3.601 -9.376,-9.26 -13.896,-1.984c-9.792,15.763 -9.019,25.006 -14.379,39.282c-1.037,2.762 -1.317,2.587 -14.105,34.078c-34.657,-15.992 -25.956,-25.295 -22.242,-37.496c13.789,-45.3 9.39,-48.125 23.64,-60.224Z" style="fill:#a89475;"/><path d="M881.006,1334.321c-0.251,0.727 -5.385,8.12 -5.279,19.931c0.494,54.825 -5.378,55.67 10.885,108.058c-6.789,1.076 -13.578,2.152 -20.366,3.228c-3.019,-4.664 -13.442,-16.683 -17.193,-33.35c-3.801,-16.892 -1.319,-17.177 -5.749,-33.969c-1.783,-6.757 4.372,-11.545 4.702,-19.286c0.483,-11.341 1.345,-11.136 8.215,-20.141c1.491,-1.954 12.16,-28.424 20.245,-27.283c1.763,0.249 2.778,2.563 4.541,2.812Z" style="fill:#b4a289;"/><path d="M824.35,1657.894c0.967,1.276 0.192,3.384 1.159,4.66c0,0 6.553,4.679 7.122,5.086c-0.338,3.005 -0.676,6.009 -1.014,9.014c-0.064,1.775 -0.129,3.55 -0.193,5.325c3.714,11.319 5.989,9.577 15.494,14.059l-1.679,3.701c-12.165,4.309 -8.228,8.078 -6.744,20.841c0.506,4.353 5.496,47.275 7.261,54.296c1.388,5.523 3.8,5.506 4.034,6.222c0.654,2.003 4.087,12.525 -22.141,14.271c-6.863,0.457 -9.504,-9.154 -10.86,-9.747c-1.219,-0.533 -2.765,0.303 -3.984,-0.23c-1.996,-4.367 -3.992,-8.733 -5.988,-13.1c0.419,-1.69 3.346,-1.931 3.765,-3.621c1.637,-6.601 -2.771,-6.719 -0.541,-13.24c2.285,-6.68 24.053,8.78 20.132,-9.922c-3.136,-14.956 -2.116,-19.287 -17.438,-19.409c0.25,-13.559 4.137,-14.609 -3.663,-25.767c-2.381,-3.199 -4.763,-6.397 -7.144,-9.596l2.317,-2.873c15.405,-3.075 12.22,-7.311 12.379,-12.093c0.052,-1.557 0.191,-5.766 7.726,-17.877Z" style="fill:#bc6746;"/><path d="M933.974,1587.619c8.689,-2.927 8.377,-2.995 16.463,-7.374c16.343,-8.851 14.188,2.119 15.097,8.239c-2.793,11.402 -6.26,13.868 3.711,19.724c0.301,0.177 2.342,4.76 4.366,-0.424c0.896,-2.294 1.025,-3.378 1.061,-3.683c0.633,-5.313 2.044,-4.571 4.302,-9.619c9.49,4.423 9.873,4.386 14.296,14.038c3.541,7.727 21.421,12.539 14.307,23.718c-1.224,1.923 -3.416,3.081 -4.706,4.96c-7.849,11.43 9.787,15.909 -0.183,27.8c-3.98,-1.135 -4.461,0.947 -9.235,-2.633c-9.6,-7.199 -7.848,-10.108 -19.834,-12.621c-10.239,-2.147 -11.865,-8.776 -14.23,-12.131c-6.117,-20.517 -7.8,-19.67 -10.245,-23.159c-9.117,-12.813 -11.223,-11.603 -15.17,-26.835Z" style="fill:#d45a37;"/><path d="M2960.243,2074.936c80.215,-7.544 82.288,-14.236 85.897,-8.35c5.107,8.329 -1.251,15.925 -120.076,22.262c-27.154,1.448 -26.465,7.253 -53.802,6.67c-35.845,-0.764 -99.524,14.406 -88.119,-0.456c6.735,-8.776 8.831,-4.282 29.681,-5.836c75.265,-5.611 74.718,-8.297 146.418,-14.29Z" style="fill:#363f2d;"/><path d="M992.179,2321.128c-0.626,24.822 2.469,53.402 -13.172,58.666c-13.269,4.465 -22.9,8.183 -38.051,-10.529c-24.534,-30.301 -24.996,-29.78 -27.029,-32.481c2.728,-2.19 3.756,-6.061 6.483,-8.251c2.754,-2.211 9.717,1.897 14.473,2.964c33.093,7.425 48.883,-3.088 52.391,-5.423l4.905,-4.946Z" style="fill:#d6e4c9;"/><path d="M1609.504,1464.527c12.548,7.994 12.544,7.971 12.983,8.301c-0.408,1.098 3.011,1.264 2.602,2.362c-0.975,2.621 -4.045,3.891 -5.752,6.106c-3.635,4.718 -11.406,27.765 -11.91,28.8c-30.577,62.751 -25.621,64.819 -57.062,127.303c-6.115,-3.77 -5.955,-3.614 -11.701,-8.049c30.599,-59.126 31.807,-80.812 70.839,-164.822Z" style="fill:#7b6749;"/><path d="M845.24,1699.739c4.174,10.335 4.262,10.122 7.178,20.924l-0.394,9.716c1.575,22.276 1.427,22.058 4.812,43.963c2.144,13.875 8.483,9.136 9.454,9.339c0.988,-1.622 1.975,-3.244 2.963,-4.866c-0.549,-3.191 -1.281,-6.349 -1.83,-9.539c-3.006,-17.459 -0.43,-17.897 -4.906,-29.263c-0,-0 -0.692,-7.44 -0.752,-8.087c17.293,0.049 11.696,8.168 18.554,23.991c2.063,4.76 0.846,18.122 4.06,23.215c3.882,6.153 3.891,6.212 3.979,6.839c0.29,2.049 -3.021,-0.059 -2.717,2.095c-16.524,6.952 -15.531,9.1 -48.768,18.575l-9.098,2.511c-3.342,0.366 -6.685,0.731 -10.027,1.097c-3.44,-7.866 -4.719,-7.149 -6.804,-15.559c-0.487,-1.963 -2.045,-3.856 -1.648,-5.839c0.323,-1.611 3.188,-1.848 3.511,-3.459c1.219,0.533 2.765,-0.303 3.984,0.23c1.356,0.593 3.997,10.204 10.86,9.747c26.227,-1.746 22.794,-12.268 22.141,-14.271c-0.233,-0.715 -2.645,-0.699 -4.034,-6.222c-1.765,-7.021 -6.755,-49.943 -7.261,-54.296c-1.484,-12.763 -5.421,-16.532 6.744,-20.841Z" style="fill:#2d3b1a;"/><path d="M1536.127,1431.709c3.245,1.706 6.49,3.412 9.735,5.118c-4.775,14.259 -20.192,81.428 -23.794,89.055c-17.002,36.001 -18.79,63.795 -24.832,69.452c-1.545,1.447 -3.976,1.693 -5.521,3.14c-3.237,-1.632 -6.474,-3.264 -9.711,-4.895c15.071,-41.467 8.876,-43.729 20.682,-62.515c21.759,-34.622 5.397,-40.999 33.441,-99.355Z" style="fill:#7a6748;"/><path d="M998.835,1896.382c-0.061,8.19 -7.66,99.03 -8.38,107.637c-0.829,9.91 -3.322,8.657 -11.626,14.16c-2.832,-1.622 -1.744,-2.592 -4.707,-4.289c-3.054,-1.75 -3.21,-0.076 -3.33,-0.316c-2.171,-4.334 0.891,-73.731 1.151,-92.912c0.184,-13.582 6.643,-10.822 8.124,-12.113c7.366,-0.518 7.448,-0.162 7.946,-0.559c0,0 9.958,-10.68 10.823,-11.609Z" style="fill:#d6e5c9;"/><path d="M1451.845,1422.314c4.667,0.032 14.585,-5.641 13.151,10.216c-3.112,34.411 -20.543,62.213 -28.874,111.844c-0.335,1.998 -1.269,7.56 -7.806,24.091c-7.37,-1.986 -7.169,-1.865 -14.461,-4.558c0.218,-1.148 -2.611,-1.411 -2.394,-2.559c0.938,-4.949 2.494,-4.415 18.671,-60.127c11.411,-39.301 11.086,-39.115 21.714,-78.907Z" style="fill:#796446;"/><path d="M3042.615,3642.265c-23.218,13.039 -22.847,13.029 -45.435,27.735c-33.9,22.073 -33.818,21.873 -70.685,38.898c-1.236,-1.029 -9.372,-7.474 -8.199,-10.817c2.926,-8.345 4.674,-6.92 11.583,-12.551c13.814,-11.258 18.39,-5.487 20.095,-5.099c4.184,0.951 3.247,-1.486 13.524,-9.49c15.864,-12.356 33.977,-19.374 34.895,-20.175c6.091,-5.313 5.205,-6.092 15.045,-13.437c4.775,-3.564 5.894,0.65 10.959,-2.255c1.339,-0.768 2.991,-0.777 4.446,-1.294c9.902,-3.517 8.579,-5.872 9.461,-5.781c1.53,0.159 -0.561,3.308 0.261,4.609c1.766,2.795 5.778,3.921 7.057,6.97c0.52,1.239 -3.527,1.447 -3.007,2.687Z" style="fill:#142034;"/><path d="M2467.751,2545.931c0.973,0.494 2.223,-1.2 3.196,-0.706c15.349,7.788 -21.022,131.118 -65.864,153.484l-5.942,-3.102c1.501,-4.464 -0.668,-5.035 3.433,-10.209c38.259,-48.262 44.311,-65.543 56.83,-115.863c2.035,-10.297 1.819,-10.064 2.911,-20.264l5.437,-3.339Z" style="fill:#020202;"/><path d="M886.768,1331.726c2.869,1.536 5.739,3.072 8.608,4.608c-0.006,12.996 -5.456,85.225 5.512,125.429c-2.879,-1.249 -2.358,3.086 -5.143,1.878c-7.658,-3.321 -4.316,-6.161 -4.947,-6.253c-2.132,-0.311 -2.055,5.233 -4.187,4.923c-16.263,-52.388 -10.391,-53.233 -10.885,-108.058c-0.106,-11.811 5.028,-19.204 5.279,-19.931l5.762,-2.596Z" style="fill:#7a694d;"/><path d="M1027.82,1320.815c7.876,10.1 6.677,10.713 6.931,23.698c1.925,98.643 3.56,98.524 3.014,107.076c-3.278,1.061 -1.856,3.008 -5.118,4.063c-0.73,0.236 -0.676,-0.184 -9.249,-2.518c1.104,-23.647 -9.036,-55.837 -5.29,-127.943c3.237,-1.459 6.474,-2.917 9.711,-4.376Z" style="fill:#7b6748;"/><path d="M871.607,1691.275c0.434,0.649 5.42,8.11 5.42,8.11c2.313,1.346 8.105,-7.897 8.626,-8.729c3.249,0.357 6.498,0.715 9.748,1.072c0.081,1.01 2.714,3.059 0.76,9.42c-3.123,10.167 -0.626,10.143 3.297,20.053c2.864,7.234 -9.504,12.934 -6.253,33.9c0.937,6.046 0.817,22.733 8.145,25.521c1.417,0.539 2.547,-2.767 3.964,-2.228c-9.567,5.583 -9.331,5.455 -19.674,9.672c-0.304,-2.154 3.006,-0.046 2.717,-2.095c-0.089,-0.627 -0.097,-0.686 -3.979,-6.839c-3.214,-5.093 -1.997,-18.456 -4.06,-23.215c-6.858,-15.823 -1.262,-23.942 -18.554,-23.991c-3.247,-0.516 -6.494,-1.031 -9.741,-1.547l0.394,-9.716c12.376,-5.729 12.74,-4.551 13.546,-5.395c0.505,-0.528 -0.019,-0.661 -0.268,-9.131c-0.538,-1.868 -2.036,-3.366 -2.574,-5.234c-2.171,-7.54 1.411,-6.63 8.486,-9.628Z" style="fill:#be643f;"/><path d="M1100.791,1317.391c5.285,40.476 -6.473,40.563 -1.428,81.234c2.856,23.026 -6.488,23.646 1.813,51.414c-4.95,0.305 -9.901,0.611 -14.851,0.916c-0.181,-0.662 1.661,-0.767 1.481,-1.429c-1.192,-4.37 -5.809,-3.18 -5.869,-26.775c-0.058,-22.526 0.274,-22.487 0.239,-24.442c-0.608,-34.471 -1.738,-34.429 4.483,-68.268c0.73,-3.968 0.431,-3.744 0.901,-7.825c6.346,-3.599 6.247,-3.465 13.232,-4.824Z" style="fill:#7e694a;"/><path d="M2622.907,2666.03c-5.348,8.502 -4.6,9.438 -13.832,13.84c-1.283,0.612 -2.632,-1.583 -4.038,-1.374c-14.67,2.182 1.317,26.843 -5.059,47.786c-1.529,5.022 -10.718,5.928 -10.256,-10.952c0.091,-3.313 0.589,-6.623 0.439,-9.934c-0.758,-16.677 -21.028,-7.515 -20.134,-29.153c0.789,-19.088 -12.453,-23.721 -0.217,-29.138c15.03,-6.655 11.995,-10.702 13.366,-10.819c21.024,-1.806 -0.232,33.111 20.104,27.44c8.319,-2.32 7.609,1.297 10.229,2.536c0,0 8.647,-0.213 9.399,-0.231Z" style="fill:#fff;"/><path d="M984.59,2264.319c1.07,1.374 3.162,1.688 4.231,3.061c2.647,3.399 0.615,3.774 3.357,53.748l-4.905,4.946c-1.773,-1.85 -1.614,-5.051 -3.387,-6.901c-2.171,-2.266 -2.389,-0.752 -5.489,-0.164c-1.74,0.33 -42.387,4.355 -48.222,-1.067c-2.112,-1.962 -3.029,-4.993 -5.141,-6.956c5.366,-2.801 22.246,-11.614 59.555,-46.667Z" style="fill:#d7e3ca;"/><path d="M876.44,1628.524l3.57,-0.504c0.174,1.719 1.788,3.078 1.962,4.797c0.809,8.006 -19.768,18.615 -13.794,28.594c0.493,0.823 0.48,0.748 6.477,10.093c-4.182,2.406 -3.327,3.74 -8.247,4.745c-0.545,0.111 -0.441,0.266 -5.958,3.593c-17.113,19.474 -13.214,-9.775 -18.365,-12.629c-0.662,-0.367 -0.692,0.031 -9.453,0.427c-0.57,-0.407 -7.122,-5.086 -7.122,-5.086c-0.967,-1.276 -0.192,-3.384 -1.159,-4.66c0.54,-0.508 6.751,-6.351 6.751,-6.351c3.684,-5.006 0.911,-8.528 0.962,-9.005c1.025,-1.278 0.136,-3.497 1.161,-4.775c0.711,-0.886 2.416,-0.105 3.314,-0.802c0.866,-0.672 0.58,-2.322 1.493,-2.928c1.271,-0.844 3.099,-0.335 4.459,-1.024c4.168,-2.111 2.425,-26.888 13.615,-18.485c2.237,1.68 1.421,2.061 3.714,14.26c2.078,11.051 6.714,4.853 16.62,-0.26Z" style="fill:#cc5d3b;"/><path d="M909.283,1656.147c1.272,-1.463 2.768,-10.723 11.69,-4.698c0.459,0.31 0.395,0.327 5.336,4.411c-2.322,3.577 -3.327,2.3 -5.825,6.148c-0.207,0.319 -1.194,1.84 -1.16,4.612c0.023,1.863 1.564,3.598 1.283,5.44c-0.37,2.426 -2.76,4.237 -3.13,6.663c-1.785,8.646 -0.196,8.503 -0.106,17.417c0.156,15.448 -5.353,14.791 -6.263,58.655c-0.236,11.394 5.615,15.288 5.912,15.853c-3.902,2.582 -7.804,5.164 -11.706,7.745c-1.417,-0.539 -2.547,2.767 -3.964,2.228c-7.328,-2.788 -7.208,-19.475 -8.145,-25.521c-3.251,-20.966 9.117,-26.665 6.253,-33.9c-3.923,-9.91 -6.42,-9.886 -3.297,-20.053c1.954,-6.361 -0.678,-8.41 -0.76,-9.42c3.065,-2.03 1.545,-3.358 4.675,-5.43c1.902,-1.26 2.371,1.055 4.153,-0.416c2.659,-2.196 1.846,-8.836 5.053,-29.735Z" style="fill:#2f3b24;"/><path d="M761.86,1635.782c6.76,5.237 7.283,4.324 12.16,11.4c-14.983,3.235 -14.485,13.132 -8.774,18.563c8.846,8.412 8.208,8.843 11.889,20.435c-6.801,0.913 -6.455,1.167 -13.536,1.421c-8.54,-3.497 -8.426,-3.8 -9.223,-3.776c-2.689,0.08 -2.235,0.85 -6.407,5.418c-2.517,2.757 -5.161,5.595 -8.466,7.331c-1.134,0.596 -2.596,-1.523 -3.73,-0.928c0.011,-3.154 0.023,-6.307 0.034,-9.461c0.02,-0.068 5.763,-7.277 -0.746,-9.805c-0.317,-0.123 -17.803,-4.357 -19.245,-5.528c-11.13,-9.033 -0.112,-10.061 10.05,-22.971c3.165,-0.931 6.33,-1.861 9.495,-2.792c3.264,0.219 6.503,5.986 14.984,-1.609c5.294,-4.741 5.417,-4.226 11.516,-7.699Z" style="fill:#c55d3f;"/><path d="M1157.485,1320.566c5.673,2.842 11.346,5.683 17.019,8.525c-0.174,0.116 -7.51,-2.934 -8.652,5.773c-0.516,3.931 5.222,3.244 6.649,49.109c1.714,55.101 -6.912,54.168 -6.573,58.897c0.204,2.835 3.46,4.865 3.664,7.7c-4.941,0.322 -9.882,0.645 -14.822,0.967c-4.142,-20.926 4.632,-42.772 -2.878,-107.448c-0.839,-7.228 0.483,-7.029 5.594,-23.523Z" style="fill:#7c674a;"/><path d="M1223.669,1352.897c3.188,1.971 31.878,19.714 40.153,24.143c-1.848,2.849 -5.905,3.759 -7.753,6.608c-1.907,2.939 -1.935,6.737 -3.057,10.056c-18.298,54.154 -12.078,61.241 -24.943,62.311c-19.73,1.641 -6.863,-9.874 -0.82,-28.666c11.191,-34.803 -1.704,-54.662 -5.338,-63.162c-3.088,-7.222 1.681,-10.792 1.758,-11.29Z" style="fill:#b09c82;"/><path d="M751.546,1749.462c-7.178,-12.036 -10.349,-11.495 -8.31,-19.4c4.7,-18.222 21.302,13.354 36.104,23.422c4.012,5.775 4.4,5.281 7.239,11.886c8.557,19.906 15.578,45.197 16.568,47.775c-9.936,0.747 -9.659,0.57 -19.384,2.026c-0.531,-2.743 -4.422,-4.019 -4.953,-6.762c-0.305,-1.577 2.428,-2.313 2.899,-3.848c0.387,-1.261 -12.368,-22.917 -13.517,-24.868c-1.401,-2.379 -1.109,-2.472 -16.645,-30.232Z" style="fill:#27351c;"/><path d="M2936.105,2764.332c7.345,1.505 7.461,1.27 13.026,6.355c5.729,5.235 6.942,1.585 7.272,2.092c1.055,1.618 -1.096,3.932 -0.511,5.773c0.65,2.044 4.074,2.932 3.957,5.074c-0.335,6.174 -21.168,1.172 -21.504,8.977c-0.346,8.033 23.656,8.558 5.871,23.947c-4.331,3.748 -4.085,-0.13 -8.906,-5.048c-2.898,-2.955 -3.208,-0.927 -5.04,0.177c-22.848,13.754 -34.06,-9.806 -32.622,-13.044c4.998,-11.259 13.705,-2.087 14.507,-1.242c5.693,5.997 9.485,4.35 9.726,-3.933c0.065,-2.245 -1.264,-7.029 4.638,-13.771c6.147,-7.024 5.804,-6.992 9.587,-15.357Z" style="fill:#fff;"/><path d="M1318.278,1408.836c-2.072,4.36 -22.211,56.639 -24.909,67.947c-3.062,12.833 -1.23,14.378 2.01,19.958c-5.999,5.783 -4.914,9.616 -12.803,7.319c-14.08,-4.1 -6.765,-9.371 -6.677,-23.847c12.788,-31.491 13.068,-31.316 14.105,-34.078c5.359,-14.275 4.587,-23.518 14.379,-39.282c4.52,-7.276 6.129,-1.617 13.896,1.984Z" style="fill:#796748;"/><path d="M2700.783,1479.603c27.087,-36.261 32.765,44.164 10.827,50.299c-3.964,1.108 -28.196,6.101 -10.827,-50.299Z" style="fill:#d8e0ce;"/><path d="M921.204,2693.348c-39.604,19.193 -14.675,-78.798 6.993,-48.564c15.691,21.894 -4.45,45.574 -6.993,48.564Z" style="fill:#fff;"/><path d="M978.795,1680.792c5.095,1.997 10.191,3.994 15.286,5.992c-14.086,22.423 -12.536,23.228 -29.222,44.054c-9.953,9.66 -17.976,18.104 -19.504,19.713c-8.591,-15.773 -5.287,-16.634 0.548,-31.943c1.117,0.352 1.363,6.083 9.095,2.863c1.573,-0.655 1.199,-0.935 5.852,-9.843c5.096,-9.757 5.335,-9.577 5.219,-10.882c-0.741,-8.351 -6.796,-14.603 12.726,-19.954Z" style="fill:#302a1d;"/><path d="M2672.576,1744.428c8.66,-0.915 10.792,-4.233 14.874,3.609c12.953,24.881 -14.54,65.344 -25.686,44.856c-12.74,-23.417 8.091,-45.571 10.812,-48.465Z" style="fill:#d9e2d0;"/><path d="M676.832,1718.853c-16.491,-10.836 -33.925,-22.436 -19.594,-31.218c4.911,-3.009 10.044,2.535 17.652,-7.133c9.186,-11.672 28.268,-7.466 21.145,15.758c-4.382,14.29 -2.351,16.21 -14.883,24.344l-4.32,-1.751Z" style="fill:#d55b36;"/><path d="M938.739,2535.652c-31.006,47.885 -32.199,-48.967 -8.215,-44.949c19.324,3.237 9.156,41.417 8.215,44.949Z" style="fill:#fff;"/><path d="M998.409,1320.005c1.262,-33.844 -1.039,-73.886 14.869,-68.339c6.133,2.138 11.801,49.828 4.267,58.609c-4.491,5.234 -2.513,7.132 -8.656,9.94c-1.625,0.743 -3.731,-0.534 -5.356,0.209l-5.124,-0.419Z" style="fill:#df9284;"/><path d="M796.575,1714.91c5.515,4.435 4.064,6.295 16.161,11.189c15.323,0.122 14.303,4.453 17.438,19.409c3.921,18.702 -17.847,3.241 -20.132,9.922c-2.231,6.522 2.178,6.639 0.541,13.24c-0.419,1.69 -3.346,1.931 -3.765,3.621c-11.474,-6.951 -8.302,-9.343 -12.369,-22.098c0.77,-18.223 -7.174,-19.434 2.125,-35.284Z" style="fill:#32331f;"/><path d="M761.86,1635.782c6.977,-7.188 7.237,-6.944 7.53,-7.758c8.306,-23.073 15.156,-7.315 15.474,-6.026c7.594,30.761 18.513,-6.519 27.639,-2.66c9.022,3.814 4.388,6.592 3.165,16.296c-15.352,20.155 -19.386,20.316 -21.838,22.209c-11.209,-2.548 -10.5,-3.928 -19.81,-10.66c-4.876,-7.076 -5.4,-6.163 -12.16,-11.4Z" style="fill:#c95c3e;"/><path d="M959.389,1637.613c2.366,3.355 3.991,9.984 14.23,12.131c11.986,2.513 10.234,5.422 19.834,12.621c4.774,3.58 5.255,1.498 9.235,2.633c-3.868,10.801 -3.634,10.836 -4.177,11.666c-3.048,4.657 -2.123,4.85 -4.43,10.119c-5.095,-1.997 -10.191,-3.994 -15.286,-5.992c-6.368,-6.836 -4.865,-9.755 -14.078,-10.307c-14.656,-0.879 -9.906,-7.772 -19.435,-18.994c4.54,-3.787 4.306,-3.9 14.107,-13.878Z" style="fill:#59624d;"/><path d="M930.777,2039.219c-5.972,2.065 -42.123,14.565 -73.922,27.825l-5.649,-4.641c4.479,-6.863 6.343,-6.418 4.958,-14.801c-1.726,-10.45 5.267,-8.255 6.014,-8.276c24.668,-0.685 24.72,0.126 48.454,-6.009c10.385,-2.685 19.113,5.377 20.145,5.903Z" style="fill:#d2e2c6;"/><path d="M774.02,1647.183c9.309,6.732 8.601,8.112 19.81,10.66c0.167,12.693 -3.305,13.673 4.047,23.924c1.713,2.388 4.656,3.709 6.369,6.097l-2.317,2.873c-1.632,1.432 -1.883,4.051 -3.515,5.483c0,0 -9.542,6.18 -10.372,6.717c-0.879,-0.306 -10.15,-3.533 -10.167,-5.655c-0.026,-3.212 1.639,-2.696 1.416,-6.053c-0.189,-2.835 -1.953,-2.001 -2.156,-5.048c-3.681,-11.593 -3.043,-12.023 -11.889,-20.435c-5.711,-5.431 -6.208,-15.328 8.774,-18.563Z" style="fill:#60664e;"/><path d="M2762.123,1167.771c6.198,-39.333 0.985,-42.38 7.517,-44.608c13.507,-4.607 13.655,25.718 15.123,39.334c0.197,1.829 1.885,17.48 -6.486,22.058c-14.734,8.059 -17.066,-0.007 -16.154,-16.784Z" style="fill:#da9183;"/><path d="M815.668,1635.634c4.056,0.478 2.689,3.282 6.897,3.778c3.934,0.464 3.298,-3.37 7.061,-2.132c1.835,0.604 0.602,4.654 2.437,5.258c-0.051,0.477 2.722,3.999 -0.962,9.005c0,0 -6.211,5.843 -6.751,6.351c-7.535,12.111 -7.675,16.32 -7.726,17.877c-0.158,4.782 3.027,9.018 -12.379,12.093c-1.713,-2.388 -4.656,-3.709 -6.369,-6.097c-7.352,-10.251 -3.88,-11.231 -4.047,-23.924c2.452,-1.893 6.486,-2.054 21.838,-22.209Z" style="fill:#53634d;"/><path d="M3012.5,1245.833l0,75c0,20.697 -16.803,37.5 -37.5,37.5l-408.333,0c-46.535,11.844 -76.696,-2.656 -45.833,-37.5l8.333,-75c0,-20.697 16.803,-37.5 37.5,-37.5c0,0 51.32,1.529 92.591,6.68c41.128,5.133 62.461,15.725 89.424,5.82c68.056,-25 213.818,-29.167 213.818,-29.167c20.697,0 50,33.47 50,54.167Z" style="fill:#c9ccc1;"/><path d="M2385.213,2532.377c31.468,0.54 31.436,-4.199 62.737,0.539c10.337,10.118 11.098,9.607 11.082,10.848c-0.053,4.221 -14.919,4.555 -16.271,4.585c-4.96,0.111 -9.933,-0.325 -14.884,-0.004c-18.5,1.197 -22.025,8.578 -39.881,-3.976c-0.928,-3.997 -1.856,-7.994 -2.783,-11.991Z" style="fill:#142034;"/><path d="M1004.244,1540.573c-36.581,37.264 -20.653,-58.036 0.424,-41.489c15.453,12.132 1.155,38.569 -0.424,41.489Z" style="fill:#1e281e;"/><path d="M2638.446,2251.458c3.101,-15.053 2.01,-15.532 5.215,-18.855c25.434,-26.374 27.274,64.017 -0.001,46.85c-5.604,-3.527 -5.25,-25.717 -5.214,-27.995Z" style="fill:#dbe3d4;"/><path d="M2652.641,1987.73c19.946,-27.339 28.691,18.015 15.614,39.825c-1.196,1.995 -30.596,12.978 -15.614,-39.825Z" style="fill:#d9e2d0;"/><path d="M2627.799,2456.444c1.638,-8.646 1.573,-8.603 1.769,-9.337c10.583,-39.57 32.545,1.674 18.035,28.803c-1.048,1.959 -17.547,18.028 -19.805,-19.465Z" style="fill:#dbe3d2;"/><path d="M925.035,2310.986c2.112,1.962 3.029,4.993 5.141,6.956c5.835,5.422 46.482,1.396 48.222,1.067c3.099,-0.587 3.318,-2.101 5.489,0.164c1.773,1.85 1.614,5.051 3.387,6.901c-3.507,2.335 -19.297,12.848 -52.391,5.423c-4.756,-1.067 -11.719,-5.175 -14.473,-2.964c-2.728,2.19 -3.756,6.061 -6.483,8.251c-3.178,-5.368 -3.276,-5.281 -3.432,-5.797c-1.905,-6.308 1.024,-7.864 1.162,-8.925c6.511,-6.009 6.268,-5.951 13.378,-11.075Z" style="fill:#bdcab1;"/><path d="M794.45,1750.194c4.067,12.754 0.895,15.147 12.369,22.098c1.996,4.367 3.992,8.733 5.988,13.1c-0.323,1.611 -3.188,1.848 -3.511,3.459c-0.397,1.983 1.162,3.876 1.648,5.839c2.084,8.41 3.364,7.693 6.804,15.559c-4.867,0.965 -9.735,1.931 -14.602,2.896c-0.99,-2.578 -8.011,-27.869 -16.568,-47.775c-2.839,-6.604 -3.227,-6.111 -7.239,-11.886c5.037,-1.097 10.074,-2.193 15.11,-3.29Z" style="fill:#798760;"/><path d="M2617.93,3428.083c-3.317,29.882 -2.213,42.748 -5.938,78.119c-1.295,-2.121 -4.92,0.113 -5.914,-9.684c-0.167,-1.648 -1.906,-18.776 -2.269,-20.583c-0.305,-1.519 -2.448,-2.292 -2.632,-3.831c-0.389,-3.249 1.04,-6.493 1.004,-9.766c-0.002,-0.188 -2.953,-13.449 0.48,-19.928c4.547,-8.582 3.833,-8.75 4.381,-9.369c0,0 10.018,-4.561 10.889,-4.958Z" style="fill:#142034;"/><path d="M2829.356,1266.074c1.825,-1.566 13.358,-14.458 23.832,-11.737c19.593,5.09 -13.133,28.234 -15.321,29.781c-1.303,0.922 -33.629,10.831 -8.511,-18.044Z" style="fill:#1c1f15;"/><path d="M2960.132,1235.615c-20.066,17.466 -22.291,6.364 -22.583,4.545c-2.996,-18.67 37.659,-40.465 35.195,-19.448c-0.545,4.644 -11.422,13.891 -12.612,14.903Z" style="fill:#1c1f14;"/><path d="M2994.813,1302.531c0.049,2.299 6.566,9.848 -11.992,24.536c-7.868,6.227 -3.119,9.184 -3.234,13.693c-9.648,0.716 -9.435,0.752 -19.182,-1.001c15.293,-32.084 16.902,-33.59 34.408,-37.227Z" style="fill:#424639;"/><path d="M832.632,1667.639c8.761,-0.396 8.79,-0.794 9.453,-0.427c5.152,2.853 1.252,32.103 18.365,12.629c3.719,3.811 7.438,7.622 11.158,11.434c-7.075,2.998 -10.657,2.088 -8.486,9.628c0.538,1.868 2.036,3.366 2.574,5.234c-10.101,-7.395 -8.058,-9.47 -9.099,-9.683c-1.803,-0.37 -2.968,2.799 -4.807,2.72c-1.929,-0.083 -2.941,-3.053 -4.87,-3.136c-9.504,-4.482 -11.779,-2.74 -15.494,-14.059l0.193,-5.325c0.338,-3.005 0.676,-6.009 1.014,-9.014Z" style="fill:#554626;"/><path d="M1229.413,4172.085c0.919,1.137 10.412,12.879 11.333,14.341c9.466,15.02 17.06,11.918 21.461,15.416c2.17,1.725 3.127,4.687 5.297,6.412c-43.143,10.297 -39.279,-11.279 -38.092,-36.168Z" style="fill:#c7c8b8;"/><path d="M2926.93,1290.278c-1.761,1.786 -12.175,15.749 -20.441,13.996c-22.309,-4.73 34.502,-54.907 28.517,-24.766c-1.124,5.659 -2.525,4.604 -8.076,10.77Z" style="fill:#1d2015;"/><path d="M763.599,1687.602c7.244,4.307 8.913,5.48 4.566,12.64c-1.874,3.087 -0.82,5.812 -27.408,11.59c-1.371,-3.034 -0.681,-3.087 -2.1,-6.228c-2.213,-4.899 -1.418,-4.895 -2.884,-9.958c1.134,-0.596 2.596,1.523 3.73,0.928c3.305,-1.735 5.949,-4.574 8.466,-7.331c4.171,-4.568 3.717,-5.338 6.407,-5.418c0.797,-0.024 0.683,0.28 9.223,3.776Z" style="fill:#5d6248;"/><path d="M949.145,1614.454c2.444,3.489 4.128,2.642 10.245,23.159c-9.801,9.978 -9.567,10.09 -14.107,13.878c-1.325,-1.198 -13.666,-12.355 -13.11,-18.08c0.151,-1.553 10.165,-14.582 16.973,-18.956Z" style="fill:#354f29;"/><path d="M2711.096,1318.615c-23.075,18.272 -19.399,-3.029 -18.642,-4.36c4.984,-8.77 39.539,-29.316 34.82,-9.704c-1.152,4.788 -2.528,3.778 -16.178,14.064Z" style="fill:#1f2218;"/><path d="M852.024,1730.379c3.247,0.516 6.494,1.031 9.741,1.547c0.06,0.647 0.752,8.087 0.752,8.087c4.476,11.366 1.899,11.804 4.906,29.263c0.549,3.191 1.281,6.349 1.83,9.539l-2.963,4.866c-0.971,-0.203 -7.31,4.536 -9.454,-9.339c-3.385,-21.905 -3.237,-21.688 -4.812,-43.963Z" style="fill:#629368;"/><path d="M2647.368,1288.832c-24.865,13.188 -23.085,-1.799 -22.165,-3.338c7.506,-12.566 48.014,-22.939 36.52,-6.161c-0.778,1.136 -1.057,0.699 -14.355,9.499Z" style="fill:#1d2113;"/><path d="M725.96,1770.774c6.947,32.087 25.431,30.723 16.291,42.605c-0.446,0.579 -3.586,4.662 -9.133,0.322c-0.388,-0.304 1.525,-0.876 -2.511,-5.627c-0.906,-1.066 -0.671,-1.101 -9.236,-14.85c-4.598,-7.38 -4.997,-6.876 -10.921,-13.216l5.248,-5.045c3.421,-1.397 6.842,-2.793 10.263,-4.19Z" style="fill:#6c8866;"/><path d="M3247.946,1328.214c-16.156,18.037 -17.393,2.105 -16.965,0.816c2.073,-6.248 34.901,-42.614 35.128,-24.78c0.074,5.815 -1.945,4.872 -18.163,23.964Z" style="fill:#35382d;"/><path d="M3238.996,1377.928c7.781,-6.132 8.163,-6.246 9.015,-6.502c27.665,-8.292 -18.612,38.742 -27.481,32.927c-2.157,-1.414 -7.147,-5.707 18.466,-26.425Z" style="fill:#3a3e32;"/><path d="M924.042,1718.505c0.997,-0.971 11.03,-10.739 15.737,-7.422c2.644,1.863 3.482,5.661 6.126,7.524c-5.835,15.309 -9.139,16.171 -0.548,31.943l-2.337,2.466c-2.049,1.248 -4.099,2.495 -6.148,3.743c-0.988,-5.082 -4.43,-2.999 -5.379,-7.884c-0.57,-2.935 3.689,-1.327 3.005,-4.332c-0.493,-2.167 -3.974,-2.442 -4.995,-4.416c-3.454,-6.679 4.243,-6.804 1.865,-13.915c-1.124,-3.361 -6.201,-4.345 -7.325,-7.707Z" style="fill:#557d4c;"/><path d="M1100.38,1251.544c-2.858,1.399 -27.639,13.535 -39.759,1.117c-0.771,-0.79 -7.607,-11.109 11.415,-7.759c16.034,2.823 36.146,-8.762 31.843,2.112c-0.702,1.774 -2.798,2.756 -3.5,4.53Z" style="fill:#42352f;"/><path d="M2994.813,1302.531c3.151,0.551 6.303,1.102 9.454,1.653c-0.125,1.851 1.547,3.53 1.422,5.381c-0.148,2.192 -1.341,19.911 -7.228,26.499c-0.385,0.43 -17.358,4.346 -18.874,4.696c0.114,-4.509 -4.634,-7.466 3.234,-13.693c18.559,-14.687 12.041,-22.236 11.992,-24.536Z" style="fill:#b1b5a8;"/><path d="M983.774,1133.884c-8.826,2.625 -7.946,4 -15.821,8.883c-5.636,3.494 -14.32,-2.675 -3.275,-12.593c11.801,-10.598 20.818,-7.475 35.162,-12.336c5.886,-1.994 3.855,5.817 3.002,6.761c-0.969,1.073 -1.018,0.829 -19.068,9.285Z" style="fill:#88634f;"/><path d="M735.807,1686.185c-0.011,3.154 -0.023,6.307 -0.034,9.461c1.467,5.063 0.671,5.059 2.884,9.958c1.419,3.14 0.729,3.193 2.1,6.228c-9.912,9.014 -11.877,4.76 -21.907,-4.24l-1.391,-11.662c-0.087,-7.088 -3.156,-12.974 2.757,-9.209c2.091,1.331 2.421,5.131 4.846,5.64c0.97,0.204 0.78,-0.448 10.746,-6.175Z" style="fill:#395337;"/><path d="M3093.502,1290.865c7.694,-5.926 7.505,-6.16 8.309,-6.4c29.833,-8.881 -20.207,47.623 -21.362,24.847c-0.385,-7.587 2.491,-6.421 13.053,-18.447Z" style="fill:#272b1e;"/><path d="M909.283,1656.147c-3.207,20.899 -2.394,27.539 -5.053,29.735c-1.782,1.471 -2.251,-0.844 -4.153,0.416c-3.129,2.072 -1.61,3.401 -4.675,5.43c-3.249,-0.357 -6.498,-0.715 -9.748,-1.072c0.305,-1.551 3.539,-17.991 4.532,-19.228c0.947,-1.18 3.821,-0.504 4.077,-1.996c0.453,-2.638 -4.047,-0.111 -3.306,-2.492c1.366,-4.392 4.664,-1.875 6.034,-6.278c7.149,0.786 8.002,1.398 12.292,-4.515Z" style="fill:#5c735c;"/><path d="M3175.044,1289.425c17.456,-15.834 19.471,-15.604 22.106,-12.473c3.932,4.672 -3.702,11.74 -13.152,21.498c-1.049,1.083 -16.141,16.667 -18.027,5.519c-1.227,-7.252 1.944,-6.284 9.074,-14.544Z" style="fill:#44473c;"/><path d="M2769.438,1318.291c10.286,-6.697 9.87,-9.01 14.78,-7.578c15.257,4.448 -10.076,26.54 -18.986,26.541c-15.316,0 3.092,-17.88 4.206,-18.962Z" style="fill:#25271c;"/><path d="M2559.602,1289.116c0.79,-0.449 9.88,-5.612 9.88,-5.612c20.478,-3.47 -1.925,24.592 -14.502,25.054c-21.086,0.774 3.366,-18.454 4.623,-19.442Z" style="fill:#24271c;"/><path d="M964.353,1256.175c-35.006,-3.244 -25.964,-16.47 -23.856,-17.551c3.039,-1.557 13.263,6.135 23.803,6.065c9.327,-0.061 14.787,-2.817 12.492,6.266c-0.788,3.118 -11.377,5.028 -12.439,5.22Z" style="fill:#56443e;"/><path d="M1086.509,1164.965c10.06,2.924 14.438,8.002 4.765,12.094c-1.492,0.631 -3.302,-0.772 -4.85,-0.294c-2.583,0.798 -14.629,15.607 -27.681,0.764c-0.551,-0.627 -11.021,-14.346 7.446,-7.311c2.039,0.777 2.971,4.183 5.148,4.043c2.63,-0.169 4.132,-3.278 6.298,-4.779c0.762,-0.529 0.743,-0.459 8.873,-4.517Z" style="fill:#88634f;"/><path d="M731.338,1766.363c-1.792,1.47 -3.585,2.941 -5.377,4.411c-3.421,1.397 -6.842,2.793 -10.263,4.19c-0.528,-0.976 -4.847,-2.235 -5.63,-10.407c-1.01,-10.544 0.75,-10.248 1.569,-14.255c0.258,-1.264 -1.941,-2.67 -1.156,-3.694c0.671,-0.876 13.586,-2.774 14.028,3.566c0.11,1.581 -0.813,3.077 -0.97,4.654c-0.482,4.856 -0.287,5.145 -0.04,5.51c2.856,4.225 4.906,1.688 7.839,6.025Z" style="fill:#8c5b36;"/><path d="M2623.427,1218.896c2.808,-0.067 5.616,-0.135 8.425,-0.202c2.923,11.181 3.258,11.078 3.156,12.07c-0.892,8.64 -19.559,18.358 -21.441,18.451c-1.257,0.062 -15.547,-3.081 3.131,-15.416c13.261,-8.758 6.538,-12.05 6.73,-14.904Z" style="fill:#404638;"/><path d="M924.042,1718.505c1.124,3.361 6.201,4.345 7.325,7.707c2.378,7.112 -5.319,7.236 -1.865,13.915c1.021,1.974 4.502,2.249 4.995,4.416c0.684,3.005 -3.575,1.397 -3.005,4.332c0.949,4.885 4.391,2.801 5.379,7.884c-2.519,2.041 -5.039,4.082 -7.558,6.123l-3.492,2.809c-8.399,-29.86 -2.564,-30.812 -1.779,-47.186Z" style="fill:#416535;"/><path d="M926.309,1655.86c5.76,3.57 17.116,5.069 9.925,21.694c-2.51,5.802 -4.318,2.708 -18.756,1.17c0.37,-2.426 2.76,-4.237 3.13,-6.663c0.281,-1.842 -1.261,-3.577 -1.283,-5.44c-0.034,-2.772 0.953,-4.293 1.16,-4.612c2.498,-3.848 3.503,-2.572 5.825,-6.148Z" style="fill:#536036;"/><path d="M3140.986,1216.187c-0.022,-0.416 -5.128,-7.449 5.509,-18.742c2.206,-2.342 12.242,-12.49 16.505,-4.437c2.223,4.199 -2.1,7.25 -9.388,16.974c-3.121,4.164 -3.847,3.016 -7.828,6.136l-4.799,0.068Z" style="fill:#3c4034;"/><path d="M676.832,1718.853l4.32,1.751c5.045,6.658 10.09,13.316 15.135,19.974c-0.573,0.702 1.166,2.413 -10.132,9.594c-14.435,-23.347 -16.79,-22.527 -15.864,-24.684c1.226,-2.853 5.315,-3.782 6.54,-6.635Z" style="fill:#494935;"/><path d="M3130.883,1186.697c-9.402,5.862 -14.47,11.373 -15.566,0.545c-1.395,-13.782 24.648,-29.69 21.235,-9.962c-0,0 -5.216,8.664 -5.67,9.417Z" style="fill:#262a1c;"/><path d="M2581.823,1346.677c-0.241,-1.891 -6.356,-7.369 17.341,-17.441c9.389,-3.99 17.115,5.401 3.666,12.472c-9.901,5.205 -9.951,5.559 -21.007,4.969Z" style="fill:#313225;"/><path d="M1368.327,1360.532c0.334,2.09 6.835,42.823 -10.045,24.474c-6.477,-7.041 4.65,-9.625 -0.96,-17.498c-0.605,-0.849 -6.872,-10.906 11.004,-6.976Z" style="fill:#88634f;"/><path d="M2785.122,1037.222c-0.96,0.79 -2.619,10.682 -20.34,-1.44c-1.22,-0.834 -14.562,-9.961 -9.859,-15.625c4.314,-5.196 28.095,15.255 30.199,17.065Z" style="fill:#4b4436;"/><path d="M2740.125,1225.15c9.117,-2.448 9.041,-2.768 9.847,-2.643c11.264,1.736 -2.198,17.769 -9.164,19.328c-1.304,0.292 -22.644,-0.368 -0.683,-16.685Z" style="fill:#2b2f28;"/><path d="M846.919,1696.038c1.929,0.083 2.941,3.053 4.87,3.136c1.839,0.079 3.003,-3.09 4.807,-2.72c1.041,0.214 -1.002,2.288 9.099,9.683c0.249,8.47 0.773,8.602 0.268,9.131c-0.806,0.843 -1.17,-0.335 -13.546,5.395c-2.915,-10.801 -3.004,-10.589 -7.178,-20.924l1.679,-3.701Z" style="fill:#5d6b3f;"/><path d="M3125.622,1347.508c-9.094,6.258 -14.041,11.745 -15.42,0.937c-1.954,-15.307 29.001,-20.965 19.776,-5.887c-1.147,1.875 -3.209,3.075 -4.356,4.95Z" style="fill:#292c21;"/><path d="M3099.712,1220.077c-7.683,6.709 -7.161,10.462 -13.567,7.462c-9.353,-4.38 -4.683,-7.481 1.658,-15.712c4.148,-5.385 8.23,-4.863 9.041,-4.759c8.564,1.094 4.612,4.758 2.868,13.009Z" style="fill:#2e3127;"/><path d="M3015.513,1217.251c9.666,-19.33 20.869,-10.216 17.689,-1.125c-1.606,4.593 -2.296,3.972 -9.057,11.084c-0.221,-0.188 -3.848,3.885 -8.633,-9.959Z" style="fill:#272a1f;"/><path d="M809.073,1700.333c7.799,11.158 3.912,12.207 3.663,25.767c-12.097,-4.894 -10.646,-6.755 -16.161,-11.189c4.589,-8.702 5.191,-7.989 12.499,-14.577Z" style="fill:#6a4e32;"/><path d="M3175.594,1373.167c-24.767,9.873 -10.404,-9.021 -9.595,-9.758c0.856,-0.781 8.421,-7.681 13.628,-4.904c7.258,3.87 -3.153,13.822 -4.032,14.663Z" style="fill:#35382d;"/><path d="M3065.414,1204.366c-16.87,13.666 -15.237,-0.779 -14.899,-1.933c2.925,-9.972 29.952,-20.15 14.899,1.933Z" style="fill:#313527;"/><path d="M2789.162,1022.844c-12.661,-7.538 -13.837,-5.223 -14.565,-6.261c-1.089,-1.552 0.463,-3.772 0.479,-5.668c0.089,-10.528 4.777,-8.619 14.41,-4.799c7.59,3.01 2.74,5.461 -0.324,16.728Z" style="fill:#4b4436;"/><path d="M1281.548,1367.376c-1.032,-0.513 -57.821,-33.259 -4.609,-13.654c0.755,0.278 5.492,2.023 8.056,6.013c5.276,8.21 -1.894,6.88 -3.447,7.641Z" style="fill:#88634f;"/><path d="M706.141,1715.436c8.151,13.836 9.32,13.556 8.71,14.786c0,0 -8.645,4.368 -9.397,4.748c-3.314,-4.292 -3.613,-3.736 -6.605,-8.556c-0.554,-0.892 -4.932,-7.943 3.224,-12.728c1.273,-0.747 2.795,2.498 4.068,1.751Z" style="fill:#444626;"/><path d="M2021.666,1701.051c1.678,-0.59 3.091,-1.805 4.769,-2.395c13.904,-4.889 15.639,16.799 2.305,16.384c-9.728,-0.303 -7.275,-4.24 -7.074,-13.989Z" style="fill:#232a22;"/><path d="M1077.13,1154.158c-2.271,0.449 -3.108,3.945 -5.38,4.393c-3.846,0.759 -17.757,-11.017 -12.778,-17.123c3.628,-4.45 8.224,-2.257 18.157,12.73Z" style="fill:#88634f;"/><path d="M965.534,1588.483c6.641,3.688 6.938,2.543 13.44,5.999c-2.257,5.048 -3.668,4.307 -4.302,9.619c-0.036,0.304 -0.166,1.389 -1.061,3.683c-2.024,5.184 -4.065,0.601 -4.366,0.424c-9.971,-5.857 -6.504,-8.322 -3.711,-19.724Z" style="fill:#975131;"/><path d="M1037.109,1111.382c9.294,-0.053 9.317,0.311 10.03,-0.057c3.502,-1.809 2.07,-3.083 5.548,-5.196c8.376,-5.088 8.135,0.531 10.103,10.108c-14.973,2.765 -14.768,3.149 -16.064,3.36c-1.615,-1.228 -1.929,-3.72 -3.543,-4.948c-0.439,-0.334 -0.45,-0.242 -6.075,-3.268Z" style="fill:#88634f;"/><path d="M801.929,1690.737c2.381,3.199 4.763,6.397 7.144,9.596c-7.307,6.588 -7.909,5.875 -12.499,14.577c-3.456,-6.73 -3.048,-6.873 -8.533,-11.973c0.83,-0.537 10.372,-6.717 10.372,-6.717c1.632,-1.432 1.883,-4.051 3.515,-5.483Z" style="fill:#895e40;"/><path d="M1037.109,1111.382c5.625,3.026 5.636,2.934 6.075,3.268c1.615,1.228 1.929,3.72 3.543,4.948c-6.706,2.186 -6.673,2.142 -7.242,2.361c-17.878,6.868 -17.103,-13.687 -6.67,-12.182c1.513,0.218 2.782,1.388 4.294,1.606Z" style="fill:#88634f;"/><path d="M1252.792,1306.398c-4.533,-3.693 -5.266,-2.238 -9.907,-6.019c-0.367,-0.299 -2.547,-2.075 -3.415,-4.834c-0.412,-1.308 7.437,-20.925 16.345,5.142c1.872,5.479 -2.806,5.302 -3.022,5.711Z" style="fill:#88634f;"/><path d="M2849.035,1118.254c-2.881,8.375 -2.211,12.462 -10.54,9.536c-2.3,-0.808 -6.46,-7.562 -2.948,-12.255c5.335,-7.127 7.154,-3.297 13.488,2.719Z" style="fill:#3d302e;"/><path d="M2721.205,1115.362c5.263,1.519 6.309,0.125 7.94,4.003c6.273,14.907 -22.203,10.601 -13.162,-0.873c1.256,-1.594 3.966,-1.536 5.222,-3.13Z" style="fill:#4b3b3a;"/><path d="M1296.055,1346.677c1.006,0.505 25.349,12.729 5.294,13.043c-8.484,0.133 -13.832,-8.855 -14.556,-10.072c-0.398,-0.669 -0.457,-1.894 9.262,-2.971Z" style="fill:#88634f;"/><path d="M1115.662,1169.015c0.941,0.802 15.395,13.127 5.028,14.611c-6.409,0.918 -7.101,0.744 -10.064,-4.914c-3.602,-6.879 -0.121,-6.759 5.036,-9.697Z" style="fill:#88634f;"/><path d="M874.655,1671.503c0.102,1.597 0.639,10.042 -3.047,19.772c-3.719,-3.811 -7.438,-7.622 -11.158,-11.434c5.516,-3.327 5.412,-3.482 5.958,-3.593c4.92,-1.005 4.065,-2.339 8.247,-4.745Z" style="fill:#6c5e41;"/><path d="M1382.96,1326.377c-1.126,-0.442 -13.373,-5.25 -13.937,-5.851c-6.075,-6.467 12.245,-12.044 15.436,-0.235c0.545,2.017 -2.044,4.069 -1.499,6.086Z" style="fill:#88634f;"/><path d="M1408.782,1329.971c2.321,-0.194 3.206,-4.082 5.527,-4.275c1.981,-0.165 3.132,2.487 4.895,3.406c5.298,2.759 9.709,2.463 5.456,6.786c-4.019,4.087 -11.072,0.182 -11.695,-0.094c-4.852,-2.145 -3.795,-5.283 -4.183,-5.823Z" style="fill:#88634f;"/><path d="M1329.975,1360.897c-1.443,-1.806 -2.321,-0.103 -3.856,-2.024c-0.235,-0.295 -1.594,-1.996 -1.364,-4.51c1.053,-11.5 22.252,2.149 11.272,5.953c-1.915,0.664 -4.137,-0.081 -6.052,0.582Z" style="fill:#88634f;"/><path d="M1325.682,1290.917c-0.796,0.689 -10.81,9.358 -13.152,-0.347c-0.735,-3.044 1.424,-5.859 1.602,-5.851c1.048,0.048 0.849,0.455 11.55,6.199Z" style="fill:#88634f;"/><path d="M2635.445,1318.986c-2.654,3.301 -0.659,4.182 -3.253,7.407c-0.194,0.241 -1.53,1.902 -3.674,1.207c-7.496,-2.431 -7.467,-6.756 -0.143,-9.695c2.213,-0.888 4.858,1.969 7.07,1.081Z" style="fill:#d0d4c6;"/><path d="M717.458,1695.93l1.391,11.662l-3.899,-0.571c0.836,-3.697 1.672,-7.394 2.508,-11.092Z" style="fill:#61633c;"/><path d="M3015.513,1217.251c4.785,13.845 8.412,9.771 8.633,9.959c-3.417,-0.173 -6.834,-0.347 -10.251,-0.52c0.539,-3.146 1.079,-6.293 1.618,-9.439Z" style="fill:#616459;"/><path d="M706.43,1801.698c7.243,5.472 7.791,5.114 7.804,5.896c0.022,1.295 -2.744,1.694 -3.778,0.913c-2.104,-1.589 -1.922,-5.22 -4.026,-6.809Z" style="fill:#1d2625;"/><path d="M2399.14,2695.606l5.942,3.102l-4.341,1.014l-1.602,-4.116Z" style="fill:#6a786a;"/><path d="M3099.14,3149.772l5.942,3.102l-4.341,1.014l-1.602,-4.116Z" style="fill:#6a786a;"/><path d="M1110.884,1256.096c20.722,-0.538 31.855,-0.73 37.466,21.288c0.951,3.731 5.557,11.957 5.593,13.534c0.039,1.726 -1.699,3.125 -1.828,4.847c-0.242,3.226 0.847,4.603 1.097,4.919c2.855,3.611 4.224,1.812 7.158,5.523c-1.171,3.227 -2.342,6.455 -3.513,9.682c-0.893,0.487 -11.158,6.092 -11.158,6.092c-0.908,-0.248 -1.189,-7.676 -15.372,-7.079c-14.877,0.626 -14.838,-0.459 -29.535,2.49c-6.985,1.359 -6.886,1.225 -13.232,4.824c-20.867,-6.669 -22.989,-4.077 -27.216,-12.106c-0.708,-1.345 1.136,-3.196 0.428,-4.541c4.846,-40.798 25.081,-35.458 34.824,-40.188c1.287,-0.625 1.132,-0.688 15.288,-9.284Z" style="fill:#e38c76;"/><path d="M925.153,1269.74c15.751,-7.027 35.004,1.76 42.969,19.61c7.964,17.851 1.643,38.049 -14.108,45.076c-15.751,7.027 -35.004,-1.76 -42.969,-19.61c-7.964,-17.851 -1.643,-38.049 14.108,-45.076Z" style="fill:#e38c76;"/><path d="M906.275,1321.843c25.827,-11.065 73.772,11.174 70.521,13.042c-0.771,0.443 -11.192,-0.131 -14.291,0.414c-1.515,0.267 17.889,11.049 16.375,11.315c-3.74,0.806 -39.653,-20.643 -40.852,-2.264c-1.61,24.691 -0.217,24.503 0.043,49.279c0.322,30.7 7.533,30.578 2.379,58.632c-1.806,9.83 -22.542,8.314 -39.562,9.501c-10.969,-40.203 -5.518,-112.433 -5.512,-125.429c-2.869,-1.536 -5.739,-3.072 -8.608,-4.608c2.077,-1.898 2.269,-5.337 4.345,-7.235c3.428,-3.133 4.837,1.776 15.162,-2.647Z" style="fill:#a89371;"/></g></svg>